<svg xmlns="http://www.w3.org/2000/svg" xmlns:xlink="http://www.w3.org/1999/xlink" width="500" zoomAndPan="magnify" viewBox="0 0 375 374.999991" height="500" preserveAspectRatio="xMidYMid meet" version="1.0"><defs><g><g id="id1"/><g id="id2"/><g id="id3"/><g id="id4"/><g id="id5"/><g id="id6"/><g id="id7"/><g id="id8"/><g id="id9"/><g id="id10"/><g id="id11"/><g id="id12"/><g id="id13"/><g id="id14"/><g id="id15"/><g id="id16"/><g id="id17"/><g id="id18"/><g id="id19"/><g id="id20"/><g id="id21"/><g id="id22"/><g id="id23"/><g id="id24"/></g><clipPath id="id25"><path d="M 59 47 L 338 47 L 338 331 L 59 331 Z M 59 47 " clip-rule="nonzero"/></clipPath><clipPath id="id26"><path d="M 99.195312 352.488281 L 43.625 75.25 L 306.890625 22.484375 L 362.457031 299.71875 Z M 99.195312 352.488281 " clip-rule="nonzero"/></clipPath><clipPath id="id27"><path d="M 99.195312 352.488281 L 43.625 75.25 L 306.890625 22.484375 L 362.457031 299.71875 Z M 99.195312 352.488281 " clip-rule="nonzero"/></clipPath></defs><rect x="-37.5" width="450" fill="rgb(100%, 100%, 100%)" y="-37.499999" height="449.999989" fill-opacity="1"/><rect x="-37.5" width="450" fill="rgb(100%, 100%, 100%)" y="-37.499999" height="449.999989" fill-opacity="1"/><rect x="-37.5" width="450" fill="rgb(100%, 100%, 100%)" y="-37.499999" height="449.999989" fill-opacity="1"/><g clip-path="url(#id25)"><g clip-path="url(#id26)"><g clip-path="url(#id27)"><path fill="rgb(13.729858%, 12.159729%, 12.548828%)" d="M 59.90625 151.285156 C 66.894531 126.015625 80.808594 103.121094 99.949219 85.304688 C 118.402344 68.125 141.710938 55.660156 168.359375 50.320312 C 206.617188 42.652344 244.359375 51.214844 274.460938 71.265625 C 304.558594 91.3125 327.007812 122.839844 334.675781 161.101562 C 342.34375 199.359375 333.78125 237.105469 313.734375 267.203125 C 293.6875 297.304688 262.160156 319.753906 223.902344 327.421875 C 196.925781 332.828125 170.199219 330.160156 146.222656 321.082031 C 121.453125 311.703125 99.632812 295.484375 83.515625 274.269531 L 85.886719 272.476562 C 101.667969 293.25 123.027344 309.128906 147.269531 318.308594 C 170.726562 327.1875 196.890625 329.796875 223.316406 324.5 C 260.765625 316.992188 291.628906 295.015625 311.253906 265.554688 C 330.875 236.089844 339.257812 199.140625 331.753906 161.6875 C 324.246094 124.234375 302.269531 93.371094 272.808594 73.746094 C 243.34375 54.121094 206.394531 45.738281 168.945312 53.242188 C 142.855469 58.472656 120.039062 70.675781 101.980469 87.488281 C 83.234375 104.9375 69.613281 127.347656 62.773438 152.078125 Z M 59.90625 151.285156 " fill-opacity="1" fill-rule="nonzero"/></g></g></g><g fill="rgb(13.729858%, 12.159729%, 12.548828%)" fill-opacity="1"><g transform="translate(39.689551, 255.340925)"><g><path d="M 22.910156 -6.675781 C 28.21875 -6.675781 30.191406 -9.40625 32.464844 -13.804688 C 37.167969 -24.121094 38.839844 -34.4375 40.203125 -45.511719 L 41.113281 -54.007812 C 41.570312 -56.285156 42.023438 -56.4375 43.84375 -56.589844 C 49.15625 -57.347656 54.617188 -58.105469 60.078125 -58.710938 L 66.449219 -59.621094 C 67.054688 -59.773438 67.359375 -60.230469 67.359375 -60.988281 C 67.207031 -61.441406 66.90625 -61.898438 66.144531 -62.050781 C 65.386719 -62.050781 64.78125 -62.050781 64.324219 -61.898438 L 50.671875 -60.078125 C 48.09375 -59.621094 45.664062 -59.46875 43.238281 -59.320312 L 42.933594 -59.320312 C 42.175781 -59.320312 41.871094 -59.773438 42.023438 -60.53125 C 43.542969 -72.0625 45.96875 -83.441406 49.304688 -94.667969 C 49.914062 -96.640625 50.671875 -97.855469 52.945312 -98.613281 L 74.945312 -106.5 C 77.222656 -107.257812 79.34375 -108.019531 81.621094 -108.777344 C 83.746094 -109.535156 85.867188 -110.292969 88.144531 -111.050781 C 89.507812 -111.507812 91.027344 -112.113281 92.695312 -113.175781 C 94.972656 -114.542969 94.820312 -117.574219 92.390625 -118.941406 C 89.507812 -120.609375 84.351562 -121.367188 81.164062 -121.367188 C 74.640625 -121.367188 68.421875 -119.246094 62.351562 -116.96875 C 57.347656 -114.996094 51.886719 -109.082031 50.214844 -103.769531 C 49.15625 -100.28125 47.03125 -98.914062 43.996094 -97.703125 C 30.644531 -92.242188 12.289062 -84.351562 1.0625 -75.097656 C 0.457031 -74.640625 -0.304688 -74.488281 0.152344 -73.429688 C 0.457031 -72.972656 0.910156 -72.820312 1.367188 -72.820312 C 1.820312 -72.820312 2.125 -72.972656 2.425781 -73.125 L 4.703125 -74.640625 C 5.15625 -75.097656 5.613281 -75.398438 6.070312 -75.855469 C 6.523438 -76.3125 6.980469 -76.613281 7.433594 -76.917969 C 18.507812 -84.199219 30.796875 -89.660156 43.085938 -94.667969 C 44.148438 -95.121094 45.058594 -95.578125 46.121094 -95.578125 L 46.421875 -95.578125 C 46.878906 -94.820312 47.03125 -94.210938 46.726562 -93.757812 C 46.421875 -93.152344 46.121094 -92.542969 45.96875 -91.9375 C 43.542969 -83.441406 41.417969 -74.945312 40.203125 -66.296875 C 40.050781 -64.476562 39.898438 -62.808594 39.445312 -60.988281 C 38.988281 -58.558594 39.292969 -58.710938 37.015625 -58.257812 C 34.894531 -57.953125 11.984375 -54.007812 11.984375 -49.761719 C 11.984375 -49.304688 12.289062 -48.851562 12.894531 -48.699219 L 13.957031 -48.699219 C 14.867188 -48.699219 15.625 -49.003906 16.082031 -49.609375 C 18.507812 -52.339844 33.375 -55.222656 37.167969 -55.679688 L 37.472656 -55.679688 C 38.382812 -55.679688 38.6875 -55.222656 38.535156 -54.3125 L 38.535156 -53.855469 C 37.167969 -40.960938 35.957031 -27.761719 30.34375 -15.777344 C 29.582031 -14.109375 28.671875 -12.59375 27.460938 -10.921875 C 25.488281 -8.648438 23.96875 -8.34375 21.085938 -8.34375 C 18.507812 -8.496094 17.445312 -9.859375 17.597656 -12.289062 C 17.597656 -13.804688 18.207031 -15.324219 19.265625 -16.6875 C 19.417969 -16.839844 19.722656 -17.144531 19.875 -17.445312 C 20.027344 -17.75 20.175781 -18.054688 20.328125 -18.355469 C 20.480469 -18.660156 20.328125 -19.117188 19.875 -19.570312 C 19.722656 -19.722656 19.570312 -19.875 19.417969 -19.875 C 19.265625 -19.875 18.964844 -19.722656 18.8125 -19.570312 C 16.992188 -17.902344 15.625 -16.234375 15.171875 -13.652344 C 14.867188 -10.769531 15.929688 -8.800781 18.507812 -7.585938 C 20.175781 -6.980469 21.085938 -6.675781 22.910156 -6.675781 Z M 52.796875 -101.34375 C 52.644531 -101.34375 52.339844 -101.496094 52.1875 -101.644531 C 52.035156 -101.949219 52.035156 -102.40625 52.339844 -102.859375 C 54.617188 -108.167969 57.953125 -112.113281 63.414062 -114.390625 C 69.332031 -116.664062 75.398438 -118.636719 81.925781 -118.636719 C 85.109375 -118.636719 88.144531 -118.03125 91.328125 -116.96875 C 91.632812 -116.816406 91.785156 -116.515625 91.785156 -116.363281 C 91.785156 -116.058594 91.632812 -115.753906 91.480469 -115.605469 C 91.027344 -115.148438 90.417969 -114.84375 89.964844 -114.695312 C 89.359375 -114.542969 88.75 -114.238281 88.296875 -114.085938 L 66.601562 -106.347656 C 64.324219 -105.589844 62.203125 -104.832031 60.078125 -104.074219 C 57.953125 -103.316406 55.828125 -102.40625 53.554688 -101.644531 C 53.097656 -101.496094 52.945312 -101.34375 52.796875 -101.34375 Z M 52.796875 -101.34375 "/></g></g></g><g fill="rgb(13.729858%, 12.159729%, 12.548828%)" fill-opacity="1"><g transform="translate(104.161995, 255.340925)"><g><path d="M 7.738281 -16.992188 C 8.34375 -16.992188 8.800781 -17.144531 9.40625 -17.296875 C 11.984375 -18.207031 14.109375 -19.875 15.472656 -22.453125 C 15.929688 -23.210938 15.777344 -23.820312 14.867188 -24.273438 C 14.714844 -24.425781 14.5625 -24.578125 14.414062 -24.578125 C 14.109375 -24.578125 13.804688 -24.273438 13.503906 -23.820312 C 12.441406 -22.453125 11.378906 -21.085938 9.710938 -20.027344 C 8.34375 -19.265625 7.28125 -18.964844 6.828125 -18.964844 C 5.765625 -18.964844 5.007812 -20.027344 4.550781 -22.300781 C 4.097656 -25.789062 4.097656 -29.28125 4.703125 -32.464844 C 6.980469 -44.753906 13.957031 -55.222656 21.695312 -64.933594 L 23.515625 -67.207031 C 24.121094 -67.964844 24.121094 -68.875 23.515625 -69.785156 C 23.363281 -70.242188 22.910156 -70.546875 22.300781 -70.546875 C 22.148438 -70.546875 21.695312 -70.394531 21.085938 -70.242188 C 20.9375 -70.242188 20.785156 -70.242188 20.785156 -70.242188 C 20.632812 -70.089844 20.480469 -70.089844 20.328125 -70.089844 C 15.472656 -67.816406 10.921875 -65.691406 6.21875 -62.808594 C 5.917969 -63.566406 5.917969 -64.023438 6.371094 -64.476562 C 6.675781 -65.085938 6.980469 -65.691406 7.433594 -66.296875 C 7.738281 -66.753906 8.039062 -67.359375 8.34375 -67.816406 C 9.710938 -70.089844 10.921875 -72.367188 11.984375 -74.792969 C 12.289062 -76.160156 12.136719 -77.222656 11.683594 -78.28125 C 11.226562 -79.042969 10.46875 -79.496094 9.710938 -79.496094 C 9.253906 -79.496094 8.949219 -79.496094 8.648438 -79.34375 C 2.730469 -76.613281 -2.277344 -68.574219 -5.15625 -62.960938 C -5.308594 -62.65625 -5.613281 -62.050781 -5.765625 -61.292969 C -6.21875 -59.621094 -6.070312 -58.410156 -5.15625 -57.347656 C -4.398438 -56.589844 -3.488281 -56.132812 -2.425781 -56.132812 C -0.757812 -56.132812 2.125 -57.5 3.335938 -58.257812 C 7.738281 -60.683594 12.136719 -62.960938 16.535156 -65.234375 C 16.6875 -65.386719 16.992188 -65.539062 17.296875 -65.691406 C 17.445312 -65.84375 17.75 -65.84375 17.902344 -65.84375 C 17.902344 -65.84375 18.054688 -65.691406 18.507812 -65.539062 C 18.355469 -65.085938 18.207031 -64.628906 17.902344 -64.171875 C 17.445312 -63.71875 17.144531 -63.414062 16.839844 -62.960938 C 9.710938 -52.945312 3.945312 -43.996094 1.972656 -31.707031 C 1.515625 -28.066406 1.515625 -24.425781 2.578125 -20.785156 C 3.640625 -18.207031 5.308594 -16.992188 7.738281 -16.992188 Z M -3.035156 -58.558594 C -3.488281 -58.710938 -3.640625 -58.863281 -3.640625 -59.320312 C -2.425781 -64.324219 4.097656 -73.277344 8.648438 -76.160156 C 8.648438 -76.160156 8.800781 -76.160156 9.253906 -76.160156 C 9.40625 -76.007812 9.558594 -75.703125 9.558594 -75.550781 C 8.496094 -72.667969 7.128906 -70.242188 5.460938 -67.664062 C 5.007812 -66.601562 4.398438 -65.691406 3.792969 -64.78125 C 3.035156 -63.871094 2.425781 -62.960938 1.972656 -61.898438 C 0.910156 -59.925781 -0.757812 -59.167969 -2.730469 -58.558594 Z M 6.070312 -62.808594 L 6.070312 -62.960938 L 6.21875 -62.808594 Z M 6.070312 -62.808594 "/></g></g></g><g fill="rgb(13.729858%, 12.159729%, 12.548828%)" fill-opacity="1"><g transform="translate(128.433979, 255.340925)"><g><path d="M 0.152344 -37.925781 C 0.910156 -37.925781 1.515625 -38.078125 2.277344 -38.382812 C 2.730469 -38.535156 3.035156 -38.839844 3.335938 -38.988281 C 3.640625 -39.140625 3.945312 -39.445312 4.398438 -39.597656 C 5.613281 -40.355469 24.121094 -57.5 24.121094 -59.925781 C 23.96875 -60.53125 23.667969 -61.441406 22.910156 -61.441406 C 22.757812 -61.441406 22.453125 -61.292969 22.300781 -61.140625 C 21.847656 -60.683594 21.542969 -60.230469 21.085938 -59.925781 C 20.632812 -59.46875 20.328125 -59.015625 19.875 -58.558594 L 9.859375 -47.941406 C 7.890625 -45.664062 5.460938 -43.691406 2.730469 -42.023438 C 1.667969 -41.113281 0.757812 -40.507812 -0.304688 -40.355469 L -0.910156 -40.203125 C -1.820312 -40.203125 -2.277344 -40.660156 -2.277344 -41.71875 C -2.425781 -43.238281 -2.277344 -44.90625 -1.972656 -46.574219 C -0.605469 -51.429688 1.214844 -55.980469 4.246094 -60.078125 C 4.550781 -60.53125 4.855469 -61.140625 5.308594 -61.898438 C 5.765625 -62.351562 4.855469 -63.566406 4.398438 -63.566406 C 3.945312 -63.71875 3.488281 -63.414062 3.1875 -62.960938 C -0.605469 -57.648438 -3.640625 -52.1875 -4.703125 -45.664062 C -4.855469 -44.601562 -4.855469 -43.390625 -4.703125 -42.175781 C -4.246094 -39.597656 -2.277344 -37.925781 0.152344 -37.925781 Z M 6.523438 -67.664062 C 6.828125 -67.511719 7.128906 -67.664062 7.433594 -67.964844 C 9.40625 -70.394531 10.921875 -73.125 12.59375 -76.007812 C 12.742188 -76.160156 12.742188 -76.460938 12.742188 -77.070312 C 12.59375 -77.222656 12.59375 -77.371094 12.59375 -77.523438 C 12.59375 -77.675781 12.441406 -77.675781 12.289062 -77.828125 C 12.136719 -77.980469 11.984375 -77.980469 11.832031 -77.980469 C 11.53125 -77.980469 11.226562 -77.828125 11.074219 -77.371094 C 10.621094 -76.613281 10.164062 -76.007812 9.859375 -75.25 C 9.40625 -74.488281 8.949219 -73.882812 8.496094 -73.125 C 7.890625 -72.0625 7.128906 -71 6.371094 -69.785156 L 5.917969 -68.875 C 5.765625 -68.421875 6.070312 -68.117188 6.523438 -67.664062 Z M 6.523438 -67.664062 "/></g></g></g><g fill="rgb(13.729858%, 12.159729%, 12.548828%)" fill-opacity="1"><g transform="translate(149.065188, 255.340925)"><g><path d="M 23.820312 -4.398438 C 25.789062 -4.398438 26.550781 -5.917969 27.15625 -7.585938 C 28.21875 -10.011719 29.128906 -12.59375 30.191406 -15.171875 C 35.804688 -29.734375 41.570312 -44.300781 48.699219 -58.257812 C 49.15625 -59.015625 49.304688 -59.621094 49.457031 -60.230469 C 49.609375 -60.683594 49.304688 -60.988281 48.851562 -61.441406 C 48.699219 -61.59375 48.546875 -61.59375 48.394531 -61.59375 C 48.242188 -61.59375 47.941406 -61.441406 47.636719 -61.140625 C 43.84375 -54.617188 40.660156 -48.09375 37.777344 -40.960938 C 33.679688 -31.402344 30.039062 -22.300781 26.246094 -12.59375 L 24.878906 -9.710938 C 24.878906 -9.558594 24.730469 -9.558594 24.273438 -9.558594 C 24.121094 -10.011719 23.820312 -10.769531 23.667969 -11.53125 C 23.363281 -13.957031 23.210938 -16.386719 23.210938 -18.964844 C 23.058594 -21.390625 23.058594 -23.820312 22.910156 -26.398438 C 22.300781 -43.542969 24.578125 -59.621094 29.886719 -76.007812 C 30.644531 -78.433594 31.554688 -80.710938 33.226562 -82.984375 C 35.195312 -85.566406 36.867188 -88.144531 38.535156 -90.570312 C 40.203125 -93 42.023438 -95.425781 43.691406 -97.855469 C 45.363281 -100.28125 47.03125 -102.859375 48.394531 -105.4375 C 49.15625 -106.804688 49.914062 -108.320312 50.367188 -109.992188 C 50.824219 -111.050781 50.824219 -111.960938 50.519531 -112.722656 C 50.066406 -113.78125 49.609375 -114.238281 48.851562 -114.238281 C 47.183594 -114.238281 45.210938 -111.8125 44.148438 -110.597656 C 39.292969 -104.679688 35.347656 -98.003906 32.769531 -90.875 C 26.699219 -73.882812 8.039062 -52.644531 -3.792969 -39.140625 C -4.398438 -38.382812 -5.007812 -37.777344 -5.765625 -37.167969 C -5.917969 -37.015625 -6.070312 -37.015625 -6.523438 -37.015625 C -6.675781 -37.167969 -6.828125 -37.472656 -6.828125 -37.625 C -6.828125 -39.898438 -6.070312 -41.871094 -5.308594 -43.84375 C -1.667969 -54.160156 9.253906 -67.511719 18.8125 -72.972656 C 19.417969 -73.125 19.875 -73.429688 20.328125 -73.882812 C 20.785156 -74.035156 20.9375 -74.339844 20.480469 -74.792969 C 20.328125 -74.945312 20.175781 -74.945312 20.027344 -75.097656 C 19.875 -75.25 19.722656 -75.25 19.570312 -75.25 C 19.117188 -75.25 18.660156 -75.097656 18.355469 -74.792969 C 7.585938 -70.394531 -7.585938 -51.886719 -9.101562 -39.75 C -9.253906 -38.6875 -9.40625 -37.625 -9.253906 -36.5625 C -9.101562 -34.894531 -7.738281 -33.984375 -6.371094 -33.984375 C -5.765625 -33.984375 -5.15625 -34.285156 -4.398438 -34.742188 C -3.792969 -35.195312 -3.1875 -35.804688 -2.730469 -36.410156 C -2.277344 -36.867188 -1.667969 -37.472656 -1.214844 -37.925781 C 7.738281 -48.09375 16.234375 -57.800781 23.515625 -68.875 C 23.96875 -69.484375 24.273438 -69.9375 24.578125 -70.242188 C 24.730469 -70.394531 24.878906 -70.394531 25.183594 -70.394531 C 25.640625 -69.636719 25.183594 -69.027344 25.03125 -68.421875 C 22.148438 -57.347656 20.480469 -46.421875 20.328125 -34.894531 C 19.875 -26.398438 20.175781 -18.207031 21.238281 -9.710938 C 21.390625 -8.34375 21.542969 -7.128906 22 -5.765625 C 22.148438 -4.855469 22.757812 -4.398438 23.820312 -4.398438 Z M 36.867188 -92.847656 C 36.5625 -93.152344 36.410156 -93.453125 36.5625 -93.605469 C 37.015625 -94.515625 44.753906 -109.839844 47.332031 -109.839844 C 47.484375 -110.140625 47.636719 -110.292969 47.789062 -110.140625 C 47.941406 -109.992188 47.789062 -109.839844 47.484375 -109.6875 C 47.636719 -108.929688 47.332031 -108.320312 46.878906 -107.714844 C 43.996094 -102.707031 41.113281 -98.003906 37.625 -93.605469 C 37.472656 -93.453125 37.320312 -93.300781 37.167969 -93.300781 C 37.015625 -93.152344 37.015625 -93 36.867188 -92.847656 Z M 36.867188 -92.847656 "/></g></g></g><g fill="rgb(13.729858%, 12.159729%, 12.548828%)" fill-opacity="1"><g transform="translate(195.181958, 255.340925)"><g><path d="M 14.261719 -35.046875 C 14.714844 -35.046875 15.324219 -35.195312 15.929688 -35.5 C 17.296875 -36.105469 18.507812 -37.015625 19.570312 -38.078125 C 20.328125 -38.839844 21.085938 -39.75 21.847656 -40.507812 C 22.605469 -41.265625 23.363281 -42.023438 24.121094 -42.78125 C 26.398438 -45.363281 28.671875 -47.941406 30.644531 -50.671875 C 32.617188 -53.402344 34.589844 -56.132812 36.5625 -58.710938 C 36.867188 -59.167969 37.015625 -59.46875 37.167969 -59.925781 C 37.320312 -60.382812 37.320312 -60.835938 36.867188 -61.292969 C 36.714844 -61.441406 36.5625 -61.441406 36.410156 -61.441406 C 36.105469 -61.441406 35.804688 -61.292969 35.652344 -61.140625 L 31.554688 -56.132812 C 29.886719 -54.007812 28.371094 -51.886719 26.851562 -49.914062 C 25.183594 -47.789062 23.515625 -45.816406 21.847656 -43.84375 C 20.9375 -42.628906 15.019531 -37.015625 13.957031 -37.015625 C 13.652344 -37.015625 13.503906 -37.015625 13.351562 -37.167969 C 12.136719 -37.625 12.289062 -38.839844 12.289062 -39.898438 C 12.136719 -42.933594 12.59375 -45.96875 13.199219 -49.003906 C 14.5625 -56.132812 17.144531 -62.65625 20.328125 -69.179688 C 20.785156 -70.089844 21.390625 -71 21.847656 -71.910156 C 22.300781 -72.820312 22.910156 -73.730469 23.363281 -74.792969 C 23.820312 -75.855469 23.96875 -76.765625 23.515625 -77.523438 C 23.363281 -78.132812 22.605469 -78.433594 22.148438 -78.433594 C 21.847656 -78.433594 21.695312 -78.433594 21.542969 -78.28125 C 20.480469 -77.523438 19.722656 -76.917969 18.964844 -75.855469 C 18.207031 -74.792969 17.445312 -73.882812 16.6875 -72.972656 C 15.929688 -71.910156 15.019531 -71 14.261719 -69.9375 C 13.652344 -69.332031 13.199219 -69.027344 12.742188 -69.027344 L 12.136719 -69.179688 C 11.832031 -69.332031 11.378906 -69.332031 10.769531 -69.332031 C 6.070312 -69.332031 1.820312 -62.203125 0.457031 -58.105469 C 0 -57.042969 0 -55.980469 0.152344 -54.617188 C 0.304688 -53.097656 1.214844 -52.339844 2.578125 -52.339844 C 3.1875 -52.339844 3.792969 -52.492188 4.246094 -52.945312 C 5.007812 -53.707031 5.765625 -54.464844 6.523438 -55.375 C 7.28125 -56.285156 7.890625 -57.195312 8.648438 -58.105469 C 9.859375 -59.773438 11.074219 -61.292969 12.289062 -62.960938 C 13.351562 -64.628906 14.5625 -66.144531 15.777344 -67.816406 C 16.082031 -68.574219 16.535156 -69.027344 17.144531 -69.484375 C 17.296875 -69.636719 17.445312 -69.785156 17.597656 -69.785156 C 17.75 -69.785156 17.902344 -69.636719 18.355469 -69.484375 C 15.625 -67.664062 11.984375 -53.554688 11.226562 -50.367188 C 10.46875 -47.183594 10.011719 -43.996094 10.164062 -40.808594 C 10.316406 -40.203125 10.316406 -39.597656 10.46875 -38.988281 C 10.46875 -38.382812 10.621094 -37.777344 10.921875 -37.320312 C 11.683594 -35.804688 12.742188 -35.046875 14.261719 -35.046875 Z M 2.882812 -55.527344 C 2.730469 -55.679688 2.578125 -55.980469 2.425781 -56.132812 L 2.578125 -56.738281 C 3.640625 -60.988281 6.523438 -65.085938 10.621094 -67.054688 C 10.921875 -67.207031 11.226562 -67.054688 11.378906 -66.90625 C 11.378906 -66.449219 11.378906 -66.296875 11.378906 -66.296875 L 8.648438 -62.203125 C 6.980469 -60.230469 5.460938 -58.105469 3.792969 -56.132812 C 3.640625 -55.980469 3.640625 -55.828125 3.488281 -55.828125 C 3.335938 -55.828125 3.035156 -55.679688 2.882812 -55.527344 Z M 2.882812 -55.527344 "/></g></g></g><g fill="rgb(13.729858%, 12.159729%, 12.548828%)" fill-opacity="1"><g transform="translate(228.859319, 255.340925)"><g><path d="M 19.722656 5.613281 C 26.398438 5.613281 32.769531 -13.046875 34.742188 -19.265625 C 36.714844 -25.183594 37.925781 -31.253906 38.230469 -37.320312 C 38.382812 -39.898438 38.988281 -42.023438 40.660156 -43.84375 C 41.265625 -44.453125 41.71875 -45.058594 42.175781 -45.816406 C 45.664062 -50.066406 49.304688 -54.007812 53.402344 -58.105469 C 53.707031 -58.410156 54.007812 -58.710938 54.3125 -59.015625 C 54.617188 -59.320312 54.917969 -59.621094 55.070312 -60.078125 C 55.222656 -60.53125 55.070312 -60.835938 54.617188 -61.292969 C 54.464844 -61.59375 54.3125 -61.746094 53.855469 -61.746094 C 53.707031 -61.746094 53.554688 -61.746094 53.402344 -61.59375 C 52.644531 -60.988281 52.035156 -60.53125 51.429688 -59.925781 C 47.789062 -56.132812 44.453125 -52.492188 40.960938 -48.394531 C 40.355469 -47.636719 39.898438 -46.726562 38.535156 -46.121094 C 38.078125 -48.699219 37.925781 -50.824219 37.777344 -53.097656 C 36.867188 -59.925781 34.285156 -74.1875 26.699219 -74.1875 C 25.488281 -74.1875 24.273438 -73.730469 23.210938 -72.972656 C 21.847656 -71.910156 20.480469 -70.699219 19.265625 -69.484375 C 18.207031 -68.117188 16.992188 -66.753906 15.929688 -65.386719 C 14.714844 -64.023438 13.503906 -62.65625 12.289062 -61.292969 L 5.460938 -53.707031 C 4.703125 -52.945312 4.097656 -52.1875 3.035156 -51.734375 C 2.882812 -51.734375 2.882812 -51.734375 2.730469 -51.582031 C 2.578125 -51.582031 2.277344 -51.734375 2.125 -52.035156 C 1.972656 -52.945312 2.125 -53.855469 2.425781 -54.917969 C 3.792969 -59.320312 4.855469 -63.71875 8.496094 -67.207031 C 8.949219 -67.359375 8.496094 -68.117188 8.039062 -68.269531 C 7.890625 -68.269531 7.738281 -68.269531 7.738281 -68.421875 C 7.585938 -68.421875 7.433594 -68.421875 7.28125 -68.421875 C 7.128906 -68.421875 6.828125 -68.269531 6.371094 -68.117188 C 3.488281 -65.996094 -0.457031 -56.132812 -0.457031 -52.339844 C -0.304688 -50.214844 0.910156 -49.15625 2.882812 -49.15625 C 3.640625 -49.15625 4.097656 -49.304688 4.398438 -49.457031 C 5.15625 -49.914062 6.070312 -50.519531 6.980469 -51.429688 C 9.859375 -54.3125 12.289062 -57.042969 14.867188 -60.078125 C 15.929688 -61.441406 17.144531 -62.65625 18.207031 -64.023438 C 19.265625 -65.234375 20.328125 -66.449219 21.390625 -67.664062 C 22.605469 -69.027344 23.667969 -70.242188 25.335938 -71.304688 C 26.09375 -72.0625 27.003906 -72.367188 27.761719 -72.367188 C 28.824219 -72.367188 29.734375 -71.757812 30.644531 -70.394531 C 34.742188 -65.085938 35.347656 -51.429688 35.804688 -44.753906 C 35.804688 -42.628906 35.195312 -40.660156 33.984375 -38.839844 C 27.761719 -29.734375 18.660156 -13.503906 16.234375 -2.578125 C 15.777344 -0.605469 15.625 1.0625 15.929688 2.730469 C 16.082031 5.15625 17.445312 5.613281 19.722656 5.613281 Z M 19.722656 3.640625 C 19.417969 3.640625 19.265625 3.640625 19.117188 3.488281 C 18.660156 3.335938 18.355469 3.035156 18.507812 2.578125 C 18.507812 2.125 18.507812 1.667969 18.355469 1.214844 L 18.355469 0.757812 C 19.117188 -8.191406 28.523438 -25.640625 33.984375 -33.832031 C 34.136719 -33.984375 34.4375 -34.136719 34.589844 -34.136719 C 34.894531 -34.136719 35.046875 -33.832031 35.046875 -33.375 C 33.375 -23.210938 28.523438 -4.855469 21.390625 2.277344 C 20.9375 2.882812 20.328125 3.640625 19.722656 3.640625 Z M 19.722656 3.640625 "/></g></g></g><g fill="rgb(13.729858%, 12.159729%, 12.548828%)" fill-opacity="1"><g transform="translate(96.546253, 129.093168)"><g><path d="M 0.734375 -1.125 L -9.640625 -7.953125 L -5.953125 -13.546875 L -5.09375 -12.96875 L -8.078125 -8.4375 L -4.203125 -5.890625 L -1.828125 -9.515625 L -0.984375 -8.96875 L -3.359375 -5.34375 L 1.4375 -2.1875 Z M 0.734375 -1.125 "/></g></g></g><g fill="rgb(13.729858%, 12.159729%, 12.548828%)" fill-opacity="1"><g transform="translate(109.756819, 111.48633)"><g><path d="M 1.578125 -2.0625 C 1.585938 -1.820312 1.507812 -1.613281 1.34375 -1.4375 C 1.1875 -1.257812 0.984375 -1.164062 0.734375 -1.15625 C 0.484375 -1.144531 0.269531 -1.21875 0.09375 -1.375 C -0.0820312 -1.539062 -0.171875 -1.75 -0.171875 -2 C -0.171875 -2.25 -0.09375 -2.460938 0.0625 -2.640625 C 0.226562 -2.816406 0.429688 -2.90625 0.671875 -2.90625 C 0.921875 -2.914062 1.132812 -2.835938 1.3125 -2.671875 C 1.488281 -2.515625 1.578125 -2.3125 1.578125 -2.0625 Z M 1.578125 -2.0625 "/></g></g></g><g fill="rgb(13.729858%, 12.159729%, 12.548828%)" fill-opacity="1"><g transform="translate(122.402312, 99.389687)"><g><path d="M -0.96875 -5.75 L 2.109375 -1.546875 L 1.078125 -0.796875 L -6.265625 -10.8125 L -3.203125 -13.0625 C -2.078125 -13.882812 -1.023438 -14.238281 -0.046875 -14.125 C 0.929688 -14.007812 1.71875 -13.539062 2.3125 -12.71875 C 2.914062 -11.894531 3.175781 -11.0625 3.09375 -10.21875 C 3.019531 -9.382812 2.570312 -8.578125 1.75 -7.796875 L 7.703125 -5.65625 L 6.390625 -4.6875 L 0.59375 -6.890625 Z M -4.625 -10.734375 L -1.578125 -6.578125 L 0.453125 -8.078125 C 2.054688 -9.253906 2.347656 -10.535156 1.328125 -11.921875 C 0.316406 -13.304688 -0.988281 -13.410156 -2.59375 -12.234375 Z M -4.625 -10.734375 "/></g></g></g><g fill="rgb(13.729858%, 12.159729%, 12.548828%)" fill-opacity="1"><g transform="translate(142.951222, 86.251612)"><g><path d="M 2.21875 -1.359375 C 2.132812 -1.128906 1.984375 -0.960938 1.765625 -0.859375 C 1.554688 -0.753906 1.332031 -0.738281 1.09375 -0.8125 C 0.863281 -0.894531 0.695312 -1.039062 0.59375 -1.25 C 0.488281 -1.46875 0.476562 -1.695312 0.5625 -1.9375 C 0.644531 -2.175781 0.789062 -2.347656 1 -2.453125 C 1.21875 -2.554688 1.441406 -2.5625 1.671875 -2.46875 C 1.910156 -2.382812 2.082031 -2.234375 2.1875 -2.015625 C 2.289062 -1.804688 2.300781 -1.585938 2.21875 -1.359375 Z M 2.21875 -1.359375 "/></g></g></g><g fill="rgb(13.729858%, 12.159729%, 12.548828%)" fill-opacity="1"><g transform="translate(159.249437, 79.562601)"><g><path d="M 1.28125 -0.390625 L -2.328125 -12.28125 L -1.109375 -12.65625 L 2.5 -0.765625 Z M 1.28125 -0.390625 "/></g></g></g><g fill="rgb(13.729858%, 12.159729%, 12.548828%)" fill-opacity="1"><g transform="translate(176.415931, 75.455299)"><g><path d="M 2.515625 -0.609375 C 2.378906 -0.421875 2.191406 -0.304688 1.953125 -0.265625 C 1.710938 -0.234375 1.488281 -0.289062 1.28125 -0.4375 C 1.082031 -0.59375 0.96875 -0.785156 0.9375 -1.015625 C 0.90625 -1.253906 0.960938 -1.472656 1.109375 -1.671875 C 1.265625 -1.867188 1.460938 -1.984375 1.703125 -2.015625 C 1.941406 -2.054688 2.15625 -2 2.34375 -1.84375 C 2.539062 -1.6875 2.65625 -1.488281 2.6875 -1.25 C 2.71875 -1.019531 2.660156 -0.804688 2.515625 -0.609375 Z M 2.515625 -0.609375 "/></g></g></g><g fill="rgb(13.729858%, 12.159729%, 12.548828%)" fill-opacity="1"><g transform="translate(193.820785, 73.893872)"><g><path d="M 2.65625 -0.84375 L 5.21875 -0.71875 C 6.875 -0.632812 8.160156 -1.023438 9.078125 -1.890625 C 9.992188 -2.753906 10.488281 -4 10.5625 -5.625 C 10.644531 -7.257812 10.273438 -8.546875 9.453125 -9.484375 C 8.628906 -10.429688 7.390625 -10.945312 5.734375 -11.03125 L 3.171875 -11.15625 Z M 5.78125 -12.15625 C 7.769531 -12.050781 9.304688 -11.414062 10.390625 -10.25 C 11.472656 -9.09375 11.960938 -7.53125 11.859375 -5.5625 C 11.765625 -3.601562 11.125 -2.117188 9.9375 -1.109375 C 8.757812 -0.0976562 7.171875 0.351562 5.171875 0.25 L 1.34375 0.0625 L 1.953125 -12.34375 Z M 5.78125 -12.15625 "/></g></g></g><g fill="rgb(13.729858%, 12.159729%, 12.548828%)" fill-opacity="1"><g transform="translate(219.485605, 76.836638)"><g><path d="M 2.578125 0.359375 C 2.367188 0.484375 2.144531 0.515625 1.90625 0.453125 C 1.675781 0.398438 1.492188 0.269531 1.359375 0.0625 C 1.234375 -0.144531 1.195312 -0.363281 1.25 -0.59375 C 1.3125 -0.832031 1.445312 -1.015625 1.65625 -1.140625 C 1.875 -1.273438 2.097656 -1.3125 2.328125 -1.25 C 2.566406 -1.195312 2.75 -1.0625 2.875 -0.84375 C 3 -0.632812 3.03125 -0.410156 2.96875 -0.171875 C 2.914062 0.0546875 2.785156 0.234375 2.578125 0.359375 Z M 2.578125 0.359375 "/></g></g></g><g fill="rgb(13.729858%, 12.159729%, 12.548828%)" fill-opacity="1"><g transform="translate(236.232505, 81.831577)"><g><path d="M 9.1875 4.203125 L 9.453125 1.140625 L 4.1875 -1.265625 L 2.015625 0.921875 L 0.859375 0.390625 L 10.1875 -9 L 11.359375 -8.453125 L 10.34375 4.734375 Z M 4.9375 -2.03125 L 9.53125 0.0625 L 10.125 -7.3125 Z M 4.9375 -2.03125 "/></g></g></g><g fill="rgb(13.729858%, 12.159729%, 12.548828%)" fill-opacity="1"><g transform="translate(258.98172, 94.06914)"><g><path d="M 2.25 1.28125 C 2.007812 1.320312 1.789062 1.273438 1.59375 1.140625 C 1.40625 1.003906 1.285156 0.8125 1.234375 0.5625 C 1.191406 0.320312 1.238281 0.109375 1.375 -0.078125 C 1.519531 -0.273438 1.710938 -0.394531 1.953125 -0.4375 C 2.203125 -0.476562 2.421875 -0.429688 2.609375 -0.296875 C 2.804688 -0.160156 2.925781 0.0234375 2.96875 0.265625 C 3.007812 0.515625 2.957031 0.734375 2.8125 0.921875 C 2.675781 1.117188 2.488281 1.238281 2.25 1.28125 Z M 2.25 1.28125 "/></g></g></g><g fill="rgb(13.729858%, 12.159729%, 12.548828%)" fill-opacity="1"><g transform="translate(272.683819, 104.985519)"><g><path d="M 3.859375 3.9375 L 2.96875 3.046875 L 6.46875 -0.375 L 9.078125 -8.5 L 10.03125 -7.53125 L 7.71875 -0.75 L 14.546875 -2.890625 L 15.5 -1.921875 L 7.359375 0.515625 Z M 3.859375 3.9375 "/></g></g></g><g fill="rgb(13.729858%, 12.159729%, 12.548828%)" fill-opacity="1"><g transform="translate(297.519432, 138.932465)"><g><path d="M 9.28125 -1.5 C 8.832031 -1.300781 8.515625 -1.019531 8.328125 -0.65625 C 8.148438 -0.300781 8.066406 0.0859375 8.078125 0.515625 C 8.097656 0.953125 8.15625 1.414062 8.25 1.90625 C 8.351562 2.394531 8.4375 2.894531 8.5 3.40625 C 8.570312 3.914062 8.59375 4.394531 8.5625 4.84375 C 8.53125 5.300781 8.363281 5.734375 8.0625 6.140625 C 7.769531 6.554688 7.332031 6.882812 6.75 7.125 C 5.875 7.5 4.972656 7.5 4.046875 7.125 C 3.117188 6.75 2.414062 5.992188 1.9375 4.859375 C 1.457031 3.734375 1.316406 2.707031 1.515625 1.78125 C 1.722656 0.863281 2.257812 0.222656 3.125 -0.140625 L 3.640625 1.078125 C 3.128906 1.335938 2.785156 1.75 2.609375 2.3125 C 2.429688 2.875 2.515625 3.5625 2.859375 4.375 C 3.210938 5.1875 3.695312 5.742188 4.3125 6.046875 C 4.9375 6.347656 5.5625 6.363281 6.1875 6.09375 C 6.820312 5.820312 7.203125 5.398438 7.328125 4.828125 C 7.453125 4.253906 7.441406 3.628906 7.296875 2.953125 C 7.160156 2.273438 7.035156 1.585938 6.921875 0.890625 C 6.816406 0.203125 6.898438 -0.457031 7.171875 -1.09375 C 7.453125 -1.726562 8.035156 -2.234375 8.921875 -2.609375 C 9.804688 -2.984375 10.675781 -2.960938 11.53125 -2.546875 C 12.382812 -2.140625 13.035156 -1.394531 13.484375 -0.3125 C 13.941406 0.757812 14.050781 1.707031 13.8125 2.53125 C 13.582031 3.363281 13.082031 4.019531 12.3125 4.5 L 11.765625 3.203125 C 12.203125 2.960938 12.507812 2.554688 12.6875 1.984375 C 12.863281 1.421875 12.796875 0.769531 12.484375 0.03125 C 12.171875 -0.695312 11.734375 -1.207031 11.171875 -1.5 C 10.617188 -1.789062 9.988281 -1.789062 9.28125 -1.5 Z M 9.28125 -1.5 "/></g></g></g><g fill="rgb(13.729858%, 12.159729%, 12.548828%)" fill-opacity="1"><g transform="translate(305.518474, 161.239321)"><g><path d="M 13.921875 6.796875 L 14.15625 8.03125 L 1.953125 10.34375 L 1.71875 9.109375 L 7.359375 8.046875 L 6.125 1.5 L 0.484375 2.5625 L 0.25 1.328125 L 12.453125 -0.984375 L 12.6875 0.25 L 7.109375 1.3125 L 8.34375 7.859375 Z M 13.921875 6.796875 "/></g></g></g><g fill="rgb(13.729858%, 12.159729%, 12.548828%)" fill-opacity="1"><g transform="translate(308.811545, 186.256297)"><g><path d="M 1.9375 10.71875 C 2.875 11.71875 4.125 12.25 5.6875 12.3125 C 7.25 12.382812 8.53125 11.96875 9.53125 11.0625 C 10.53125 10.15625 11.0625 8.976562 11.125 7.53125 C 11.195312 6.082031 10.769531 4.859375 9.84375 3.859375 C 8.914062 2.867188 7.671875 2.335938 6.109375 2.265625 C 4.546875 2.203125 3.257812 2.625 2.25 3.53125 C 1.25 4.445312 0.710938 5.625 0.640625 7.0625 C 0.578125 8.507812 1.007812 9.726562 1.9375 10.71875 Z M 1.546875 2.625 C 2.796875 1.457031 4.335938 0.910156 6.171875 0.984375 C 8.003906 1.066406 9.488281 1.742188 10.625 3.015625 C 11.769531 4.285156 12.300781 5.804688 12.21875 7.578125 C 12.144531 9.359375 11.484375 10.828125 10.234375 11.984375 C 8.992188 13.148438 7.457031 13.691406 5.625 13.609375 C 3.789062 13.535156 2.300781 12.863281 1.15625 11.59375 C 0.0195312 10.332031 -0.503906 8.8125 -0.421875 7.03125 C -0.347656 5.257812 0.304688 3.789062 1.546875 2.625 Z M 1.546875 2.625 "/></g></g></g><g fill="rgb(13.729858%, 12.159729%, 12.548828%)" fill-opacity="1"><g transform="translate(305.916363, 213.519051)"><g><path d="M 8.828125 11.03125 C 7.992188 11.550781 7.054688 11.664062 6.015625 11.375 C 4.984375 11.09375 4.238281 10.519531 3.78125 9.65625 C 3.332031 8.800781 3.289062 7.691406 3.65625 6.328125 L 4.328125 3.890625 L -0.6875 2.515625 L -0.359375 1.296875 L 11.625 4.5625 L 10.625 8.21875 C 10.257812 9.570312 9.660156 10.507812 8.828125 11.03125 Z M 5.328125 4.15625 L 4.65625 6.59375 C 4.132812 8.519531 4.703125 9.707031 6.359375 10.15625 C 8.015625 10.613281 9.101562 9.878906 9.625 7.953125 L 10.296875 5.515625 Z M 5.328125 4.15625 "/></g></g></g><g fill="rgb(13.729858%, 12.159729%, 12.548828%)" fill-opacity="1"><g transform="translate(298.383815, 235.848633)"><g><path d="M 6.375 12.59375 C 5.457031 12.9375 4.519531 12.859375 3.5625 12.359375 C 2.601562 11.867188 1.988281 11.15625 1.71875 10.21875 C 1.457031 9.289062 1.644531 8.203125 2.28125 6.953125 L 3.4375 4.703125 L -1.1875 2.328125 L -0.609375 1.203125 L 10.453125 6.859375 L 8.71875 10.234375 C 8.082031 11.472656 7.300781 12.257812 6.375 12.59375 Z M 4.359375 5.171875 L 3.203125 7.421875 C 2.296875 9.191406 2.609375 10.46875 4.140625 11.25 C 5.671875 12.03125 6.890625 11.535156 7.796875 9.765625 L 8.953125 7.515625 Z M 4.359375 5.171875 "/></g></g></g><g fill="rgb(13.729858%, 12.159729%, 12.548828%)" fill-opacity="1"><g transform="translate(286.288809, 256.193604)"><g><path d="M -0.8125 1.0625 L 9.046875 8.609375 L 8.265625 9.625 L -1.59375 2.078125 Z M -0.8125 1.0625 "/></g></g></g><g fill="rgb(13.729858%, 12.159729%, 12.548828%)" fill-opacity="1"><g transform="translate(274.946168, 269.540201)"><g><path d="M 1.125 15.640625 L 0.1875 16.46875 L -8.078125 7.203125 L -7.140625 6.375 L 4.96875 9.5 L -1.953125 1.734375 L -1 0.890625 L 7.265625 10.15625 L 6.3125 11 L -5.796875 7.875 Z M 1.125 15.640625 "/></g></g></g><g fill="rgb(13.729858%, 12.159729%, 12.548828%)" fill-opacity="1"><g transform="translate(254.963024, 285.431429)"><g><path d="M -1.4375 2.671875 C 0.195312 3.140625 1.453125 4.179688 2.328125 5.796875 C 3.203125 7.421875 3.390625 9.046875 2.890625 10.671875 C 2.390625 12.296875 1.359375 13.53125 -0.203125 14.375 C -1.328125 14.988281 -2.460938 15.273438 -3.609375 15.234375 C -4.753906 15.203125 -5.8125 14.816406 -6.78125 14.078125 L -5.4375 13.359375 C -4.738281 13.828125 -3.976562 14.0625 -3.15625 14.0625 C -2.34375 14.0625 -1.535156 13.84375 -0.734375 13.40625 C 0.546875 12.71875 1.375 11.722656 1.75 10.421875 C 2.125 9.128906 1.9375 7.789062 1.1875 6.40625 C 0.445312 5.03125 -0.566406 4.144531 -1.859375 3.75 C -3.148438 3.363281 -4.425781 3.507812 -5.6875 4.1875 C -6.945312 4.875 -7.769531 5.796875 -8.15625 6.953125 C -8.550781 8.117188 -8.457031 9.375 -7.875 10.71875 L -2.953125 8.046875 L -2.484375 8.921875 L -8.5625 12.21875 L -9.03125 11.34375 C -9.695312 9.738281 -9.765625 8.191406 -9.234375 6.703125 C -8.710938 5.210938 -7.691406 4.050781 -6.171875 3.21875 C -4.648438 2.394531 -3.070312 2.210938 -1.4375 2.671875 Z M -1.4375 2.671875 "/></g></g></g><g fill="rgb(13.729858%, 12.159729%, 12.548828%)" fill-opacity="1"><g transform="translate(211.664008, 301.476585)"><g><path d="M -2.390625 1.890625 C -1.066406 2.960938 -0.320312 4.414062 -0.15625 6.25 C 0.0078125 8.082031 -0.457031 9.644531 -1.5625 10.9375 C -2.664062 12.238281 -4.097656 12.972656 -5.859375 13.140625 C -7.140625 13.253906 -8.296875 13.066406 -9.328125 12.578125 C -10.367188 12.085938 -11.191406 11.316406 -11.796875 10.265625 L -10.265625 10.125 C -9.816406 10.820312 -9.21875 11.335938 -8.46875 11.671875 C -7.71875 12.003906 -6.882812 12.128906 -5.96875 12.046875 C -4.53125 11.910156 -3.378906 11.320312 -2.515625 10.28125 C -1.648438 9.238281 -1.289062 7.9375 -1.4375 6.375 C -1.582031 4.8125 -2.171875 3.59375 -3.203125 2.71875 C -4.234375 1.84375 -5.46875 1.472656 -6.90625 1.609375 C -7.820312 1.691406 -8.617188 1.960938 -9.296875 2.421875 C -9.972656 2.878906 -10.472656 3.492188 -10.796875 4.265625 L -12.328125 4.40625 C -11.929688 3.269531 -11.265625 2.367188 -10.328125 1.703125 C -9.398438 1.035156 -8.296875 0.644531 -7.015625 0.53125 C -5.253906 0.363281 -3.710938 0.816406 -2.390625 1.890625 Z M -2.390625 1.890625 "/></g></g></g><g fill="rgb(13.729858%, 12.159729%, 12.548828%)" fill-opacity="1"><g transform="translate(184.314052, 302.306259)"><g><path d="M -10.015625 -1.421875 L -9.390625 1.578125 L -3.65625 2.390625 L -2.203125 -0.3125 L -0.9375 -0.140625 L -7.21875 11.515625 L -8.515625 11.328125 L -11.265625 -1.609375 Z M -4.15625 3.34375 L -9.140625 2.625 L -7.640625 9.875 Z M -4.15625 3.34375 "/></g></g></g><g fill="rgb(13.729858%, 12.159729%, 12.548828%)" fill-opacity="1"><g transform="translate(159.116008, 297.14475)"><g><path d="M -4.265625 3.953125 L -2.4375 -0.921875 L -1.25 -0.46875 L -5.625 11.15625 L -9.1875 9.8125 C -10.488281 9.320312 -11.359375 8.632812 -11.796875 7.75 C -12.234375 6.875 -12.269531 5.957031 -11.90625 5 C -11.550781 4.050781 -11 3.378906 -10.25 2.984375 C -9.5 2.585938 -8.582031 2.519531 -7.5 2.78125 L -8.953125 -3.375 L -7.40625 -2.796875 L -6.078125 3.265625 Z M -6.453125 9.734375 L -4.640625 4.90625 L -7.015625 4.015625 C -8.878906 3.316406 -10.113281 3.769531 -10.71875 5.375 C -11.320312 6.988281 -10.691406 8.144531 -8.828125 8.84375 Z M -6.453125 9.734375 "/></g></g></g><g fill="rgb(13.729858%, 12.159729%, 12.548828%)" fill-opacity="1"><g transform="translate(136.940901, 287.223691)"><g><path d="M -6.859375 9.140625 L -7.40625 10 L -13.953125 5.828125 L -13.40625 4.96875 L -10.65625 6.71875 L -4.53125 -2.890625 L -3.484375 -2.21875 L -9.609375 7.390625 Z M -6.859375 9.140625 "/></g></g></g><g fill="rgb(13.729858%, 12.159729%, 12.548828%)" fill-opacity="1"><g transform="translate(118.304528, 273.639542)"><g/></g></g></svg>