<svg xmlns="http://www.w3.org/2000/svg" xmlns:xlink="http://www.w3.org/1999/xlink" width="500" zoomAndPan="magnify" viewBox="0 0 375 374.999991" height="500" preserveAspectRatio="xMidYMid meet" version="1.0"><defs><g><g id="id1"/><g id="id2"/><g id="id3"/><g id="id4"/><g id="id5"/><g id="id6"/><g id="id7"/><g id="id8"/><g id="id9"/><g id="id10"/><g id="id11"/><g id="id12"/><g id="id13"/><g id="id14"/><g id="id15"/><g id="id16"/><g id="id17"/><g id="id18"/><g id="id19"/><g id="id20"/><g id="id21"/><g id="id22"/><g id="id23"/><g id="id24"/></g><clipPath id="id25"><path d="M 59 47 L 338 47 L 338 331 L 59 331 Z M 59 47 " clip-rule="nonzero"/></clipPath><clipPath id="id26"><path d="M 99.195312 352.488281 L 43.625 75.25 L 306.890625 22.484375 L 362.457031 299.71875 Z M 99.195312 352.488281 " clip-rule="nonzero"/></clipPath><clipPath id="id27"><path d="M 99.195312 352.488281 L 43.625 75.25 L 306.890625 22.484375 L 362.457031 299.71875 Z M 99.195312 352.488281 " clip-rule="nonzero"/></clipPath></defs><rect x="-37.5" width="450" fill="rgb(100%, 100%, 100%)" y="-37.499999" height="449.999989" fill-opacity="1"/><rect x="-37.5" width="450" fill="rgb(13.729858%, 12.159729%, 12.548828%)" y="-37.499999" height="449.999989" fill-opacity="1"/><rect x="-37.5" width="450" fill="rgb(100%, 100%, 100%)" y="-37.499999" height="449.999989" fill-opacity="1"/><rect x="-37.5" width="450" fill="rgb(13.729858%, 12.159729%, 12.548828%)" y="-37.499999" height="449.999989" fill-opacity="1"/><g clip-path="url(#id25)"><g clip-path="url(#id26)"><g clip-path="url(#id27)"><path fill="rgb(100%, 100%, 100%)" d="M 59.90625 151.285156 C 66.894531 126.015625 80.808594 103.121094 99.949219 85.304688 C 118.402344 68.125 141.710938 55.660156 168.359375 50.320312 C 206.617188 42.652344 244.359375 51.214844 274.460938 71.265625 C 304.558594 91.3125 327.007812 122.839844 334.675781 161.101562 C 342.34375 199.359375 333.78125 237.105469 313.734375 267.203125 C 293.6875 297.304688 262.160156 319.753906 223.902344 327.421875 C 196.925781 332.828125 170.199219 330.160156 146.222656 321.082031 C 121.453125 311.703125 99.632812 295.484375 83.515625 274.269531 L 85.886719 272.476562 C 101.667969 293.25 123.027344 309.128906 147.269531 318.308594 C 170.726562 327.1875 196.890625 329.796875 223.316406 324.5 C 260.765625 316.992188 291.628906 295.015625 311.253906 265.554688 C 330.875 236.089844 339.257812 199.140625 331.753906 161.6875 C 324.246094 124.234375 302.269531 93.371094 272.808594 73.746094 C 243.34375 54.121094 206.394531 45.738281 168.945312 53.242188 C 142.855469 58.472656 120.039062 70.675781 101.980469 87.488281 C 83.234375 104.9375 69.613281 127.347656 62.773438 152.078125 Z M 59.90625 151.285156 " fill-opacity="1" fill-rule="nonzero"/></g></g></g><g fill="rgb(100%, 100%, 100%)" fill-opacity="1"><g transform="translate(39.690808, 257.872418)"><g><path d="M 22.910156 -6.675781 C 28.222656 -6.675781 30.191406 -9.40625 32.46875 -13.808594 C 37.171875 -24.125 38.839844 -34.441406 40.207031 -45.515625 L 41.117188 -54.015625 C 41.574219 -56.289062 42.027344 -56.441406 43.847656 -56.59375 C 49.160156 -57.351562 54.621094 -58.109375 60.082031 -58.71875 L 66.457031 -59.628906 C 67.0625 -59.78125 67.367188 -60.234375 67.367188 -60.992188 C 67.214844 -61.449219 66.910156 -61.902344 66.152344 -62.054688 C 65.394531 -62.054688 64.785156 -62.054688 64.332031 -61.902344 L 50.675781 -60.082031 C 48.097656 -59.628906 45.667969 -59.476562 43.242188 -59.324219 L 42.9375 -59.324219 C 42.179688 -59.324219 41.875 -59.78125 42.027344 -60.539062 C 43.546875 -72.070312 45.972656 -83.449219 49.3125 -94.675781 C 49.917969 -96.648438 50.675781 -97.863281 52.953125 -98.621094 L 74.953125 -106.511719 C 77.226562 -107.269531 79.351562 -108.027344 81.628906 -108.785156 C 83.753906 -109.546875 85.875 -110.304688 88.152344 -111.0625 C 89.519531 -111.519531 91.035156 -112.125 92.703125 -113.1875 C 94.980469 -114.550781 94.828125 -117.585938 92.402344 -118.953125 C 89.519531 -120.621094 84.359375 -121.378906 81.171875 -121.378906 C 74.648438 -121.378906 68.429688 -119.253906 62.359375 -116.980469 C 57.351562 -115.007812 51.890625 -109.089844 50.222656 -103.78125 C 49.160156 -100.289062 47.035156 -98.925781 44 -97.710938 C 30.648438 -92.25 12.289062 -84.359375 1.0625 -75.105469 C 0.457031 -74.648438 -0.304688 -74.496094 0.152344 -73.433594 C 0.457031 -72.980469 0.910156 -72.828125 1.367188 -72.828125 C 1.820312 -72.828125 2.125 -72.980469 2.425781 -73.132812 L 4.703125 -74.648438 C 5.160156 -75.105469 5.613281 -75.40625 6.070312 -75.863281 C 6.523438 -76.316406 6.980469 -76.621094 7.433594 -76.925781 C 18.511719 -84.207031 30.800781 -89.667969 43.089844 -94.675781 C 44.152344 -95.132812 45.0625 -95.585938 46.125 -95.585938 L 46.429688 -95.585938 C 46.882812 -94.828125 47.035156 -94.222656 46.730469 -93.765625 C 46.429688 -93.160156 46.125 -92.550781 45.972656 -91.945312 C 43.546875 -83.449219 41.421875 -74.953125 40.207031 -66.304688 C 40.054688 -64.484375 39.902344 -62.8125 39.449219 -60.992188 C 38.992188 -58.566406 39.296875 -58.71875 37.019531 -58.261719 C 34.898438 -57.957031 11.984375 -54.015625 11.984375 -49.765625 C 11.984375 -49.3125 12.289062 -48.855469 12.898438 -48.703125 L 13.957031 -48.703125 C 14.867188 -48.703125 15.628906 -49.007812 16.082031 -49.613281 C 18.511719 -52.34375 33.378906 -55.226562 37.171875 -55.683594 L 37.476562 -55.683594 C 38.386719 -55.683594 38.691406 -55.226562 38.539062 -54.316406 L 38.539062 -53.863281 C 37.171875 -40.964844 35.957031 -27.765625 30.34375 -15.78125 C 29.585938 -14.109375 28.675781 -12.59375 27.460938 -10.925781 C 25.488281 -8.648438 23.972656 -8.34375 21.089844 -8.34375 C 18.511719 -8.496094 17.449219 -9.863281 17.601562 -12.289062 C 17.601562 -13.808594 18.207031 -15.324219 19.269531 -16.691406 C 19.421875 -16.839844 19.722656 -17.144531 19.875 -17.449219 C 20.027344 -17.75 20.179688 -18.054688 20.332031 -18.359375 C 20.484375 -18.664062 20.332031 -19.117188 19.875 -19.574219 C 19.722656 -19.722656 19.574219 -19.875 19.421875 -19.875 C 19.269531 -19.875 18.964844 -19.722656 18.8125 -19.574219 C 16.992188 -17.902344 15.628906 -16.234375 15.171875 -13.65625 C 14.867188 -10.773438 15.929688 -8.800781 18.511719 -7.585938 C 20.179688 -6.980469 21.089844 -6.675781 22.910156 -6.675781 Z M 52.800781 -101.351562 C 52.648438 -101.351562 52.34375 -101.503906 52.195312 -101.65625 C 52.042969 -101.960938 52.042969 -102.414062 52.34375 -102.871094 C 54.621094 -108.179688 57.957031 -112.125 63.421875 -114.402344 C 69.339844 -116.675781 75.40625 -118.648438 81.929688 -118.648438 C 85.117188 -118.648438 88.152344 -118.042969 91.339844 -116.980469 C 91.640625 -116.828125 91.792969 -116.523438 91.792969 -116.375 C 91.792969 -116.070312 91.640625 -115.765625 91.488281 -115.613281 C 91.035156 -115.160156 90.429688 -114.855469 89.972656 -114.703125 C 89.367188 -114.550781 88.757812 -114.25 88.304688 -114.097656 L 66.605469 -106.359375 C 64.332031 -105.601562 62.207031 -104.84375 60.082031 -104.082031 C 57.957031 -103.324219 55.835938 -102.414062 53.558594 -101.65625 C 53.105469 -101.503906 52.953125 -101.351562 52.800781 -101.351562 Z M 52.800781 -101.351562 "/></g></g></g><g fill="rgb(100%, 100%, 100%)" fill-opacity="1"><g transform="translate(104.172963, 257.872418)"><g><path d="M 7.738281 -16.992188 C 8.34375 -16.992188 8.800781 -17.144531 9.40625 -17.296875 C 11.984375 -18.207031 14.109375 -19.875 15.476562 -22.457031 C 15.929688 -23.214844 15.78125 -23.820312 14.867188 -24.277344 C 14.71875 -24.425781 14.566406 -24.578125 14.414062 -24.578125 C 14.109375 -24.578125 13.808594 -24.277344 13.503906 -23.820312 C 12.441406 -22.457031 11.378906 -21.089844 9.710938 -20.027344 C 8.34375 -19.269531 7.28125 -18.964844 6.828125 -18.964844 C 5.765625 -18.964844 5.007812 -20.027344 4.550781 -22.304688 C 4.097656 -25.792969 4.097656 -29.28125 4.703125 -32.46875 C 6.980469 -44.757812 13.957031 -55.226562 21.695312 -64.9375 L 23.515625 -67.214844 C 24.125 -67.972656 24.125 -68.882812 23.515625 -69.792969 C 23.367188 -70.25 22.910156 -70.550781 22.304688 -70.550781 C 22.152344 -70.550781 21.695312 -70.402344 21.089844 -70.25 C 20.9375 -70.25 20.785156 -70.25 20.785156 -70.25 C 20.632812 -70.097656 20.484375 -70.097656 20.332031 -70.097656 C 15.476562 -67.820312 10.925781 -65.695312 6.222656 -62.8125 C 5.917969 -63.574219 5.917969 -64.027344 6.371094 -64.484375 C 6.675781 -65.089844 6.980469 -65.695312 7.433594 -66.304688 C 7.738281 -66.757812 8.042969 -67.367188 8.34375 -67.820312 C 9.710938 -70.097656 10.925781 -72.371094 11.984375 -74.800781 C 12.289062 -76.164062 12.136719 -77.226562 11.683594 -78.289062 C 11.226562 -79.046875 10.46875 -79.503906 9.710938 -79.503906 C 9.253906 -79.503906 8.953125 -79.503906 8.648438 -79.351562 C 2.730469 -76.621094 -2.277344 -68.578125 -5.160156 -62.964844 C -5.308594 -62.664062 -5.613281 -62.054688 -5.765625 -61.296875 C -6.222656 -59.628906 -6.070312 -58.414062 -5.160156 -57.351562 C -4.398438 -56.59375 -3.488281 -56.136719 -2.425781 -56.136719 C -0.757812 -56.136719 2.125 -57.503906 3.339844 -58.261719 C 7.738281 -60.691406 12.136719 -62.964844 16.539062 -65.242188 C 16.691406 -65.394531 16.992188 -65.546875 17.296875 -65.695312 C 17.449219 -65.847656 17.75 -65.847656 17.902344 -65.847656 C 17.902344 -65.847656 18.054688 -65.695312 18.511719 -65.546875 C 18.359375 -65.089844 18.207031 -64.636719 17.902344 -64.179688 C 17.449219 -63.722656 17.144531 -63.421875 16.839844 -62.964844 C 9.710938 -52.953125 3.945312 -44 1.972656 -31.710938 C 1.515625 -28.070312 1.515625 -24.425781 2.578125 -20.785156 C 3.640625 -18.207031 5.308594 -16.992188 7.738281 -16.992188 Z M -3.035156 -58.566406 C -3.488281 -58.71875 -3.640625 -58.871094 -3.640625 -59.324219 C -2.425781 -64.332031 4.097656 -73.28125 8.648438 -76.164062 C 8.648438 -76.164062 8.800781 -76.164062 9.253906 -76.164062 C 9.40625 -76.015625 9.558594 -75.710938 9.558594 -75.558594 C 8.496094 -72.675781 7.132812 -70.25 5.460938 -67.667969 C 5.007812 -66.605469 4.398438 -65.695312 3.792969 -64.785156 C 3.035156 -63.875 2.425781 -62.964844 1.972656 -61.902344 C 0.910156 -59.929688 -0.757812 -59.171875 -2.730469 -58.566406 Z M 6.070312 -62.8125 L 6.070312 -62.964844 L 6.222656 -62.8125 Z M 6.070312 -62.8125 "/></g></g></g><g fill="rgb(100%, 100%, 100%)" fill-opacity="1"><g transform="translate(128.448604, 257.872418)"><g><path d="M 0.152344 -37.929688 C 0.910156 -37.929688 1.515625 -38.082031 2.277344 -38.386719 C 2.730469 -38.539062 3.035156 -38.839844 3.339844 -38.992188 C 3.640625 -39.144531 3.945312 -39.449219 4.398438 -39.601562 C 5.613281 -40.359375 24.125 -57.503906 24.125 -59.929688 C 23.972656 -60.539062 23.667969 -61.449219 22.910156 -61.449219 C 22.757812 -61.449219 22.457031 -61.296875 22.304688 -61.144531 C 21.847656 -60.691406 21.546875 -60.234375 21.089844 -59.929688 C 20.632812 -59.476562 20.332031 -59.019531 19.875 -58.566406 L 9.863281 -47.945312 C 7.890625 -45.667969 5.460938 -43.695312 2.730469 -42.027344 C 1.667969 -41.117188 0.757812 -40.511719 -0.304688 -40.359375 L -0.910156 -40.207031 C -1.820312 -40.207031 -2.277344 -40.664062 -2.277344 -41.722656 C -2.425781 -43.242188 -2.277344 -44.910156 -1.972656 -46.578125 C -0.605469 -51.433594 1.214844 -55.988281 4.25 -60.082031 C 4.550781 -60.539062 4.855469 -61.144531 5.308594 -61.902344 C 5.765625 -62.359375 4.855469 -63.574219 4.398438 -63.574219 C 3.945312 -63.722656 3.488281 -63.421875 3.1875 -62.964844 C -0.605469 -57.65625 -3.640625 -52.195312 -4.703125 -45.667969 C -4.855469 -44.605469 -4.855469 -43.394531 -4.703125 -42.179688 C -4.25 -39.601562 -2.277344 -37.929688 0.152344 -37.929688 Z M 6.523438 -67.667969 C 6.828125 -67.519531 7.132812 -67.667969 7.433594 -67.972656 C 9.40625 -70.402344 10.925781 -73.132812 12.59375 -76.015625 C 12.746094 -76.164062 12.746094 -76.46875 12.746094 -77.078125 C 12.59375 -77.226562 12.59375 -77.378906 12.59375 -77.53125 C 12.59375 -77.683594 12.441406 -77.683594 12.289062 -77.835938 C 12.136719 -77.988281 11.984375 -77.988281 11.835938 -77.988281 C 11.53125 -77.988281 11.226562 -77.835938 11.074219 -77.378906 C 10.621094 -76.621094 10.164062 -76.015625 9.863281 -75.253906 C 9.40625 -74.496094 8.953125 -73.890625 8.496094 -73.132812 C 7.890625 -72.070312 7.132812 -71.007812 6.371094 -69.792969 L 5.917969 -68.882812 C 5.765625 -68.429688 6.070312 -68.125 6.523438 -67.667969 Z M 6.523438 -67.667969 "/></g></g></g><g fill="rgb(100%, 100%, 100%)" fill-opacity="1"><g transform="translate(149.082895, 257.872418)"><g><path d="M 23.820312 -4.398438 C 25.792969 -4.398438 26.550781 -5.917969 27.160156 -7.585938 C 28.222656 -10.015625 29.132812 -12.59375 30.191406 -15.171875 C 35.808594 -29.738281 41.574219 -44.304688 48.703125 -58.261719 C 49.160156 -59.019531 49.3125 -59.628906 49.460938 -60.234375 C 49.613281 -60.691406 49.3125 -60.992188 48.855469 -61.449219 C 48.703125 -61.601562 48.550781 -61.601562 48.398438 -61.601562 C 48.25 -61.601562 47.945312 -61.449219 47.640625 -61.144531 C 43.847656 -54.621094 40.664062 -48.097656 37.78125 -40.964844 C 33.683594 -31.40625 30.042969 -22.304688 26.25 -12.59375 L 24.882812 -9.710938 C 24.882812 -9.558594 24.730469 -9.558594 24.277344 -9.558594 C 24.125 -10.015625 23.820312 -10.773438 23.667969 -11.53125 C 23.367188 -13.957031 23.214844 -16.386719 23.214844 -18.964844 C 23.0625 -21.394531 23.0625 -23.820312 22.910156 -26.398438 C 22.304688 -43.546875 24.578125 -59.628906 29.890625 -76.015625 C 30.648438 -78.441406 31.558594 -80.71875 33.226562 -82.992188 C 35.199219 -85.574219 36.871094 -88.152344 38.539062 -90.578125 C 40.207031 -93.007812 42.027344 -95.433594 43.695312 -97.863281 C 45.367188 -100.289062 47.035156 -102.871094 48.398438 -105.449219 C 49.160156 -106.8125 49.917969 -108.332031 50.371094 -110 C 50.828125 -111.0625 50.828125 -111.972656 50.523438 -112.730469 C 50.070312 -113.792969 49.613281 -114.25 48.855469 -114.25 C 47.1875 -114.25 45.214844 -111.820312 44.152344 -110.609375 C 39.296875 -104.691406 35.351562 -98.015625 32.773438 -90.882812 C 26.703125 -73.890625 8.042969 -52.648438 -3.792969 -39.144531 C -4.398438 -38.386719 -5.007812 -37.78125 -5.765625 -37.171875 C -5.917969 -37.019531 -6.070312 -37.019531 -6.523438 -37.019531 C -6.675781 -37.171875 -6.828125 -37.476562 -6.828125 -37.628906 C -6.828125 -39.902344 -6.070312 -41.875 -5.308594 -43.847656 C -1.667969 -54.164062 9.253906 -67.519531 18.8125 -72.980469 C 19.421875 -73.132812 19.875 -73.433594 20.332031 -73.890625 C 20.785156 -74.042969 20.9375 -74.34375 20.484375 -74.800781 C 20.332031 -74.953125 20.179688 -74.953125 20.027344 -75.105469 C 19.875 -75.253906 19.722656 -75.253906 19.574219 -75.253906 C 19.117188 -75.253906 18.664062 -75.105469 18.359375 -74.800781 C 7.585938 -70.402344 -7.585938 -51.890625 -9.101562 -39.75 C -9.253906 -38.691406 -9.40625 -37.628906 -9.253906 -36.566406 C -9.101562 -34.898438 -7.738281 -33.988281 -6.371094 -33.988281 C -5.765625 -33.988281 -5.160156 -34.289062 -4.398438 -34.746094 C -3.792969 -35.199219 -3.1875 -35.808594 -2.730469 -36.414062 C -2.277344 -36.871094 -1.667969 -37.476562 -1.214844 -37.929688 C 7.738281 -48.097656 16.234375 -57.808594 23.515625 -68.882812 C 23.972656 -69.488281 24.277344 -69.945312 24.578125 -70.25 C 24.730469 -70.402344 24.882812 -70.402344 25.1875 -70.402344 C 25.640625 -69.640625 25.1875 -69.035156 25.035156 -68.429688 C 22.152344 -57.351562 20.484375 -46.429688 20.332031 -34.898438 C 19.875 -26.398438 20.179688 -18.207031 21.242188 -9.710938 C 21.394531 -8.34375 21.546875 -7.132812 22 -5.765625 C 22.152344 -4.855469 22.757812 -4.398438 23.820312 -4.398438 Z M 36.871094 -92.855469 C 36.566406 -93.160156 36.414062 -93.460938 36.566406 -93.613281 C 37.019531 -94.523438 44.757812 -109.847656 47.339844 -109.847656 C 47.488281 -110.152344 47.640625 -110.304688 47.792969 -110.152344 C 47.945312 -110 47.792969 -109.847656 47.488281 -109.695312 C 47.640625 -108.9375 47.339844 -108.332031 46.882812 -107.726562 C 44 -102.71875 41.117188 -98.015625 37.628906 -93.613281 C 37.476562 -93.460938 37.324219 -93.3125 37.171875 -93.3125 C 37.019531 -93.160156 37.019531 -93.007812 36.871094 -92.855469 Z M 36.871094 -92.855469 "/></g></g></g><g fill="rgb(100%, 100%, 100%)" fill-opacity="1"><g transform="translate(195.206599, 257.872418)"><g><path d="M 14.261719 -35.046875 C 14.71875 -35.046875 15.324219 -35.199219 15.929688 -35.503906 C 17.296875 -36.109375 18.511719 -37.019531 19.574219 -38.082031 C 20.332031 -38.839844 21.089844 -39.75 21.847656 -40.511719 C 22.605469 -41.269531 23.367188 -42.027344 24.125 -42.785156 C 26.398438 -45.367188 28.675781 -47.945312 30.648438 -50.675781 C 32.621094 -53.40625 34.59375 -56.136719 36.566406 -58.71875 C 36.871094 -59.171875 37.019531 -59.476562 37.171875 -59.929688 C 37.324219 -60.386719 37.324219 -60.839844 36.871094 -61.296875 C 36.71875 -61.449219 36.566406 -61.449219 36.414062 -61.449219 C 36.109375 -61.449219 35.808594 -61.296875 35.65625 -61.144531 L 31.558594 -56.136719 C 29.890625 -54.015625 28.371094 -51.890625 26.855469 -49.917969 C 25.1875 -47.792969 23.515625 -45.820312 21.847656 -43.847656 C 20.9375 -42.632812 15.019531 -37.019531 13.957031 -37.019531 C 13.65625 -37.019531 13.503906 -37.019531 13.351562 -37.171875 C 12.136719 -37.628906 12.289062 -38.839844 12.289062 -39.902344 C 12.136719 -42.9375 12.59375 -45.972656 13.199219 -49.007812 C 14.566406 -56.136719 17.144531 -62.664062 20.332031 -69.1875 C 20.785156 -70.097656 21.394531 -71.007812 21.847656 -71.917969 C 22.304688 -72.828125 22.910156 -73.738281 23.367188 -74.800781 C 23.820312 -75.863281 23.972656 -76.773438 23.515625 -77.53125 C 23.367188 -78.136719 22.605469 -78.441406 22.152344 -78.441406 C 21.847656 -78.441406 21.695312 -78.441406 21.546875 -78.289062 C 20.484375 -77.53125 19.722656 -76.925781 18.964844 -75.863281 C 18.207031 -74.800781 17.449219 -73.890625 16.691406 -72.980469 C 15.929688 -71.917969 15.019531 -71.007812 14.261719 -69.945312 C 13.65625 -69.339844 13.199219 -69.035156 12.746094 -69.035156 L 12.136719 -69.1875 C 11.835938 -69.339844 11.378906 -69.339844 10.773438 -69.339844 C 6.070312 -69.339844 1.820312 -62.207031 0.457031 -58.109375 C 0 -57.046875 0 -55.988281 0.152344 -54.621094 C 0.304688 -53.105469 1.214844 -52.34375 2.578125 -52.34375 C 3.1875 -52.34375 3.792969 -52.496094 4.25 -52.953125 C 5.007812 -53.710938 5.765625 -54.46875 6.523438 -55.378906 C 7.28125 -56.289062 7.890625 -57.199219 8.648438 -58.109375 C 9.863281 -59.78125 11.074219 -61.296875 12.289062 -62.964844 C 13.351562 -64.636719 14.566406 -66.152344 15.78125 -67.820312 C 16.082031 -68.578125 16.539062 -69.035156 17.144531 -69.488281 C 17.296875 -69.640625 17.449219 -69.792969 17.601562 -69.792969 C 17.75 -69.792969 17.902344 -69.640625 18.359375 -69.488281 C 15.628906 -67.667969 11.984375 -53.558594 11.226562 -50.371094 C 10.46875 -47.1875 10.015625 -44 10.164062 -40.8125 C 10.316406 -40.207031 10.316406 -39.601562 10.46875 -38.992188 C 10.46875 -38.386719 10.621094 -37.78125 10.925781 -37.324219 C 11.683594 -35.808594 12.746094 -35.046875 14.261719 -35.046875 Z M 2.882812 -55.53125 C 2.730469 -55.683594 2.578125 -55.988281 2.425781 -56.136719 L 2.578125 -56.746094 C 3.640625 -60.992188 6.523438 -65.089844 10.621094 -67.0625 C 10.925781 -67.214844 11.226562 -67.0625 11.378906 -66.910156 C 11.378906 -66.457031 11.378906 -66.304688 11.378906 -66.304688 L 8.648438 -62.207031 C 6.980469 -60.234375 5.460938 -58.109375 3.792969 -56.136719 C 3.640625 -55.988281 3.640625 -55.835938 3.488281 -55.835938 C 3.339844 -55.835938 3.035156 -55.683594 2.882812 -55.53125 Z M 2.882812 -55.53125 "/></g></g></g><g fill="rgb(100%, 100%, 100%)" fill-opacity="1"><g transform="translate(228.889042, 257.872418)"><g><path d="M 19.722656 5.613281 C 26.398438 5.613281 32.773438 -13.046875 34.746094 -19.269531 C 36.71875 -25.1875 37.929688 -31.253906 38.234375 -37.324219 C 38.386719 -39.902344 38.992188 -42.027344 40.664062 -43.847656 C 41.269531 -44.457031 41.722656 -45.0625 42.179688 -45.820312 C 45.667969 -50.070312 49.3125 -54.015625 53.40625 -58.109375 C 53.710938 -58.414062 54.015625 -58.71875 54.316406 -59.019531 C 54.621094 -59.324219 54.925781 -59.628906 55.078125 -60.082031 C 55.226562 -60.539062 55.078125 -60.839844 54.621094 -61.296875 C 54.46875 -61.601562 54.316406 -61.753906 53.863281 -61.753906 C 53.710938 -61.753906 53.558594 -61.753906 53.40625 -61.601562 C 52.648438 -60.992188 52.042969 -60.539062 51.433594 -59.929688 C 47.792969 -56.136719 44.457031 -52.496094 40.964844 -48.398438 C 40.359375 -47.640625 39.902344 -46.730469 38.539062 -46.125 C 38.082031 -48.703125 37.929688 -50.828125 37.78125 -53.105469 C 36.871094 -59.929688 34.289062 -74.195312 26.703125 -74.195312 C 25.488281 -74.195312 24.277344 -73.738281 23.214844 -72.980469 C 21.847656 -71.917969 20.484375 -70.703125 19.269531 -69.488281 C 18.207031 -68.125 16.992188 -66.757812 15.929688 -65.394531 C 14.71875 -64.027344 13.503906 -62.664062 12.289062 -61.296875 L 5.460938 -53.710938 C 4.703125 -52.953125 4.097656 -52.195312 3.035156 -51.738281 C 2.882812 -51.738281 2.882812 -51.738281 2.730469 -51.585938 C 2.578125 -51.585938 2.277344 -51.738281 2.125 -52.042969 C 1.972656 -52.953125 2.125 -53.863281 2.425781 -54.925781 C 3.792969 -59.324219 4.855469 -63.722656 8.496094 -67.214844 C 8.953125 -67.367188 8.496094 -68.125 8.042969 -68.277344 C 7.890625 -68.277344 7.738281 -68.277344 7.738281 -68.429688 C 7.585938 -68.429688 7.433594 -68.429688 7.28125 -68.429688 C 7.132812 -68.429688 6.828125 -68.277344 6.371094 -68.125 C 3.488281 -66 -0.457031 -56.136719 -0.457031 -52.34375 C -0.304688 -50.222656 0.910156 -49.160156 2.882812 -49.160156 C 3.640625 -49.160156 4.097656 -49.3125 4.398438 -49.460938 C 5.160156 -49.917969 6.070312 -50.523438 6.980469 -51.433594 C 9.863281 -54.316406 12.289062 -57.046875 14.867188 -60.082031 C 15.929688 -61.449219 17.144531 -62.664062 18.207031 -64.027344 C 19.269531 -65.242188 20.332031 -66.457031 21.394531 -67.667969 C 22.605469 -69.035156 23.667969 -70.25 25.339844 -71.3125 C 26.097656 -72.070312 27.007812 -72.371094 27.765625 -72.371094 C 28.828125 -72.371094 29.738281 -71.765625 30.648438 -70.402344 C 34.746094 -65.089844 35.351562 -51.433594 35.808594 -44.757812 C 35.808594 -42.632812 35.199219 -40.664062 33.988281 -38.839844 C 27.765625 -29.738281 18.664062 -13.503906 16.234375 -2.578125 C 15.78125 -0.605469 15.628906 1.0625 15.929688 2.730469 C 16.082031 5.160156 17.449219 5.613281 19.722656 5.613281 Z M 19.722656 3.640625 C 19.421875 3.640625 19.269531 3.640625 19.117188 3.488281 C 18.664062 3.339844 18.359375 3.035156 18.511719 2.578125 C 18.511719 2.125 18.511719 1.667969 18.359375 1.214844 L 18.359375 0.757812 C 19.117188 -8.191406 28.523438 -25.640625 33.988281 -33.835938 C 34.136719 -33.988281 34.441406 -34.136719 34.59375 -34.136719 C 34.898438 -34.136719 35.046875 -33.835938 35.046875 -33.378906 C 33.378906 -23.214844 28.523438 -4.855469 21.394531 2.277344 C 20.9375 2.882812 20.332031 3.640625 19.722656 3.640625 Z M 19.722656 3.640625 "/></g></g></g><g fill="rgb(100%, 100%, 100%)" fill-opacity="1"><g transform="translate(96.936936, 129.403024)"><g><path d="M 0.734375 -1.125 L -9.65625 -7.9375 L -5.96875 -13.546875 L -5.09375 -12.984375 L -8.078125 -8.4375 L -4.203125 -5.890625 L -1.828125 -9.515625 L -0.984375 -8.953125 L -3.359375 -5.328125 L 1.4375 -2.1875 Z M 0.734375 -1.125 "/></g></g></g><g fill="rgb(100%, 100%, 100%)" fill-opacity="1"><g transform="translate(110.088657, 111.848857)"><g><path d="M 1.578125 -2.0625 C 1.585938 -1.820312 1.507812 -1.613281 1.34375 -1.4375 C 1.1875 -1.257812 0.984375 -1.164062 0.734375 -1.15625 C 0.484375 -1.144531 0.269531 -1.21875 0.09375 -1.375 C -0.0820312 -1.539062 -0.171875 -1.75 -0.171875 -2 C -0.171875 -2.25 -0.09375 -2.460938 0.0625 -2.640625 C 0.226562 -2.816406 0.429688 -2.90625 0.671875 -2.90625 C 0.921875 -2.914062 1.132812 -2.835938 1.3125 -2.671875 C 1.488281 -2.515625 1.578125 -2.3125 1.578125 -2.0625 Z M 1.578125 -2.0625 "/></g></g></g><g fill="rgb(100%, 100%, 100%)" fill-opacity="1"><g transform="translate(122.660421, 99.806448)"><g><path d="M -0.96875 -5.734375 L 2.109375 -1.546875 L 1.078125 -0.796875 L -6.265625 -10.8125 L -3.203125 -13.0625 C -2.078125 -13.882812 -1.03125 -14.238281 -0.0625 -14.125 C 0.90625 -14.019531 1.691406 -13.554688 2.296875 -12.734375 C 2.898438 -11.910156 3.160156 -11.078125 3.078125 -10.234375 C 3.003906 -9.390625 2.5625 -8.578125 1.75 -7.796875 L 7.703125 -5.65625 L 6.390625 -4.6875 L 0.59375 -6.875 Z M -4.625 -10.734375 L -1.578125 -6.578125 L 0.453125 -8.078125 C 2.054688 -9.253906 2.347656 -10.535156 1.328125 -11.921875 C 0.316406 -13.304688 -0.988281 -13.410156 -2.59375 -12.234375 Z M -4.625 -10.734375 "/></g></g></g><g fill="rgb(100%, 100%, 100%)" fill-opacity="1"><g transform="translate(143.12849, 86.705201)"><g><path d="M 2.21875 -1.359375 C 2.132812 -1.128906 1.984375 -0.960938 1.765625 -0.859375 C 1.554688 -0.753906 1.332031 -0.738281 1.09375 -0.8125 C 0.863281 -0.894531 0.695312 -1.039062 0.59375 -1.25 C 0.488281 -1.46875 0.476562 -1.695312 0.5625 -1.9375 C 0.644531 -2.175781 0.789062 -2.347656 1 -2.453125 C 1.21875 -2.554688 1.441406 -2.5625 1.671875 -2.46875 C 1.910156 -2.382812 2.082031 -2.234375 2.1875 -2.015625 C 2.289062 -1.804688 2.300781 -1.585938 2.21875 -1.359375 Z M 2.21875 -1.359375 "/></g></g></g><g fill="rgb(100%, 100%, 100%)" fill-opacity="1"><g transform="translate(159.352365, 80.03844)"><g><path d="M 1.28125 -0.390625 L -2.328125 -12.28125 L -1.109375 -12.65625 L 2.5 -0.765625 Z M 1.28125 -0.390625 "/></g></g></g><g fill="rgb(100%, 100%, 100%)" fill-opacity="1"><g transform="translate(176.443091, 75.940621)"><g><path d="M 2.515625 -0.625 C 2.378906 -0.425781 2.191406 -0.304688 1.953125 -0.265625 C 1.710938 -0.234375 1.488281 -0.289062 1.28125 -0.4375 C 1.082031 -0.59375 0.96875 -0.785156 0.9375 -1.015625 C 0.90625 -1.253906 0.960938 -1.472656 1.109375 -1.671875 C 1.265625 -1.867188 1.460938 -1.984375 1.703125 -2.015625 C 1.941406 -2.054688 2.15625 -2 2.34375 -1.84375 C 2.539062 -1.695312 2.65625 -1.503906 2.6875 -1.265625 C 2.71875 -1.035156 2.660156 -0.820312 2.515625 -0.625 Z M 2.515625 -0.625 "/></g></g></g><g fill="rgb(100%, 100%, 100%)" fill-opacity="1"><g transform="translate(193.755008, 74.375116)"><g><path d="M 2.65625 -0.84375 L 5.21875 -0.71875 C 6.875 -0.632812 8.160156 -1.023438 9.078125 -1.890625 C 9.992188 -2.753906 10.488281 -4 10.5625 -5.625 C 10.644531 -7.257812 10.269531 -8.546875 9.4375 -9.484375 C 8.613281 -10.429688 7.375 -10.945312 5.71875 -11.03125 L 3.15625 -11.15625 Z M 5.78125 -12.15625 C 7.769531 -12.050781 9.300781 -11.414062 10.375 -10.25 C 11.457031 -9.09375 11.953125 -7.53125 11.859375 -5.5625 C 11.765625 -3.601562 11.125 -2.117188 9.9375 -1.109375 C 8.757812 -0.0976562 7.171875 0.351562 5.171875 0.25 L 1.34375 0.0625 L 1.953125 -12.34375 Z M 5.78125 -12.15625 "/></g></g></g><g fill="rgb(100%, 100%, 100%)" fill-opacity="1"><g transform="translate(219.329769, 77.298993)"><g><path d="M 2.578125 0.359375 C 2.367188 0.484375 2.144531 0.515625 1.90625 0.453125 C 1.675781 0.398438 1.492188 0.269531 1.359375 0.0625 C 1.234375 -0.144531 1.195312 -0.363281 1.25 -0.59375 C 1.3125 -0.832031 1.445312 -1.015625 1.65625 -1.140625 C 1.875 -1.273438 2.097656 -1.3125 2.328125 -1.25 C 2.566406 -1.195312 2.75 -1.0625 2.875 -0.84375 C 3 -0.632812 3.03125 -0.410156 2.96875 -0.171875 C 2.914062 0.0546875 2.785156 0.234375 2.578125 0.359375 Z M 2.578125 0.359375 "/></g></g></g><g fill="rgb(100%, 100%, 100%)" fill-opacity="1"><g transform="translate(235.990622, 82.256948)"><g><path d="M 9.203125 4.203125 L 9.46875 1.140625 L 4.1875 -1.265625 L 2.015625 0.921875 L 0.859375 0.390625 L 10.1875 -9 L 11.375 -8.453125 L 10.34375 4.71875 Z M 4.9375 -2.03125 L 9.53125 0.0625 L 10.125 -7.3125 Z M 4.9375 -2.03125 "/></g></g></g><g fill="rgb(100%, 100%, 100%)" fill-opacity="1"><g transform="translate(258.66314, 94.445389)"><g><path d="M 2.25 1.28125 C 2.007812 1.320312 1.789062 1.273438 1.59375 1.140625 C 1.40625 1.003906 1.285156 0.8125 1.234375 0.5625 C 1.191406 0.320312 1.238281 0.109375 1.375 -0.078125 C 1.519531 -0.273438 1.710938 -0.394531 1.953125 -0.4375 C 2.203125 -0.476562 2.421875 -0.429688 2.609375 -0.296875 C 2.804688 -0.160156 2.925781 0.0234375 2.96875 0.265625 C 3.007812 0.515625 2.957031 0.734375 2.8125 0.921875 C 2.675781 1.117188 2.488281 1.238281 2.25 1.28125 Z M 2.25 1.28125 "/></g></g></g><g fill="rgb(100%, 100%, 100%)" fill-opacity="1"><g transform="translate(272.297183, 105.302455)"><g><path d="M 3.859375 3.9375 L 2.96875 3.046875 L 6.46875 -0.375 L 9.078125 -8.5 L 10.03125 -7.53125 L 7.71875 -0.75 L 14.546875 -2.90625 L 15.515625 -1.921875 L 7.359375 0.515625 Z M 3.859375 3.9375 "/></g></g></g><g fill="rgb(100%, 100%, 100%)" fill-opacity="1"><g transform="translate(297.040334, 139.09387)"><g><path d="M 9.28125 -1.5 C 8.832031 -1.300781 8.515625 -1.019531 8.328125 -0.65625 C 8.148438 -0.300781 8.066406 0.0859375 8.078125 0.515625 C 8.097656 0.941406 8.15625 1.398438 8.25 1.890625 C 8.351562 2.390625 8.4375 2.890625 8.5 3.390625 C 8.570312 3.898438 8.59375 4.382812 8.5625 4.84375 C 8.53125 5.300781 8.363281 5.734375 8.0625 6.140625 C 7.769531 6.554688 7.332031 6.882812 6.75 7.125 C 5.875 7.5 4.972656 7.5 4.046875 7.125 C 3.117188 6.75 2.414062 5.992188 1.9375 4.859375 C 1.457031 3.734375 1.316406 2.707031 1.515625 1.78125 C 1.722656 0.863281 2.257812 0.222656 3.125 -0.140625 L 3.640625 1.078125 C 3.117188 1.335938 2.769531 1.75 2.59375 2.3125 C 2.425781 2.875 2.515625 3.5625 2.859375 4.375 C 3.210938 5.1875 3.695312 5.742188 4.3125 6.046875 C 4.9375 6.347656 5.5625 6.363281 6.1875 6.09375 C 6.820312 5.820312 7.203125 5.398438 7.328125 4.828125 C 7.453125 4.253906 7.441406 3.628906 7.296875 2.953125 C 7.160156 2.273438 7.035156 1.585938 6.921875 0.890625 C 6.816406 0.203125 6.898438 -0.457031 7.171875 -1.09375 C 7.453125 -1.726562 8.035156 -2.234375 8.921875 -2.609375 C 9.804688 -2.984375 10.675781 -2.960938 11.53125 -2.546875 C 12.382812 -2.140625 13.035156 -1.394531 13.484375 -0.3125 C 13.941406 0.757812 14.050781 1.707031 13.8125 2.53125 C 13.582031 3.363281 13.082031 4.019531 12.3125 4.5 L 11.765625 3.203125 C 12.203125 2.960938 12.507812 2.554688 12.6875 1.984375 C 12.863281 1.421875 12.796875 0.769531 12.484375 0.03125 C 12.171875 -0.695312 11.734375 -1.207031 11.171875 -1.5 C 10.617188 -1.789062 9.988281 -1.789062 9.28125 -1.5 Z M 9.28125 -1.5 "/></g></g></g><g fill="rgb(100%, 100%, 100%)" fill-opacity="1"><g transform="translate(305.011941, 161.300562)"><g><path d="M 13.921875 6.796875 L 14.15625 8.03125 L 1.953125 10.34375 L 1.71875 9.109375 L 7.359375 8.046875 L 6.125 1.5 L 0.484375 2.5625 L 0.25 1.3125 L 12.453125 -1 L 12.6875 0.25 L 7.109375 1.3125 L 8.34375 7.859375 Z M 13.921875 6.796875 "/></g></g></g><g fill="rgb(100%, 100%, 100%)" fill-opacity="1"><g transform="translate(308.29877, 186.206721)"><g><path d="M 1.9375 10.71875 C 2.875 11.71875 4.125 12.25 5.6875 12.3125 C 7.25 12.382812 8.53125 11.96875 9.53125 11.0625 C 10.53125 10.15625 11.0625 8.976562 11.125 7.53125 C 11.195312 6.082031 10.769531 4.859375 9.84375 3.859375 C 8.914062 2.867188 7.671875 2.335938 6.109375 2.265625 C 4.546875 2.203125 3.257812 2.625 2.25 3.53125 C 1.25 4.445312 0.710938 5.625 0.640625 7.0625 C 0.578125 8.507812 1.007812 9.726562 1.9375 10.71875 Z M 1.546875 2.625 C 2.796875 1.457031 4.335938 0.910156 6.171875 0.984375 C 8.003906 1.066406 9.488281 1.742188 10.625 3.015625 C 11.769531 4.285156 12.300781 5.804688 12.21875 7.578125 C 12.144531 9.359375 11.484375 10.828125 10.234375 11.984375 C 8.992188 13.148438 7.457031 13.691406 5.625 13.609375 C 3.789062 13.535156 2.300781 12.863281 1.15625 11.59375 C 0.0195312 10.332031 -0.503906 8.8125 -0.421875 7.03125 C -0.347656 5.257812 0.304688 3.789062 1.546875 2.625 Z M 1.546875 2.625 "/></g></g></g><g fill="rgb(100%, 100%, 100%)" fill-opacity="1"><g transform="translate(305.418586, 213.364738)"><g><path d="M 8.828125 11.03125 C 7.992188 11.550781 7.054688 11.664062 6.015625 11.375 C 4.984375 11.09375 4.238281 10.519531 3.78125 9.65625 C 3.332031 8.800781 3.289062 7.691406 3.65625 6.328125 L 4.328125 3.890625 L -0.6875 2.515625 L -0.359375 1.296875 L 11.625 4.5625 L 10.625 8.21875 C 10.257812 9.570312 9.660156 10.507812 8.828125 11.03125 Z M 5.328125 4.15625 L 4.65625 6.59375 C 4.132812 8.519531 4.703125 9.707031 6.359375 10.15625 C 8.015625 10.613281 9.101562 9.878906 9.625 7.953125 L 10.296875 5.515625 Z M 5.328125 4.15625 "/></g></g></g><g fill="rgb(100%, 100%, 100%)" fill-opacity="1"><g transform="translate(297.91995, 235.600692)"><g><path d="M 6.375 12.59375 C 5.457031 12.9375 4.519531 12.863281 3.5625 12.375 C 2.601562 11.882812 1.988281 11.171875 1.71875 10.234375 C 1.457031 9.296875 1.644531 8.203125 2.28125 6.953125 L 3.4375 4.703125 L -1.1875 2.328125 L -0.609375 1.203125 L 10.453125 6.859375 L 8.71875 10.234375 C 8.082031 11.472656 7.300781 12.257812 6.375 12.59375 Z M 4.359375 5.171875 L 3.203125 7.421875 C 2.296875 9.191406 2.609375 10.46875 4.140625 11.25 C 5.671875 12.03125 6.890625 11.535156 7.796875 9.765625 L 8.953125 7.515625 Z M 4.359375 5.171875 "/></g></g></g><g fill="rgb(100%, 100%, 100%)" fill-opacity="1"><g transform="translate(285.87126, 255.871683)"><g><path d="M -0.8125 1.0625 L 9.046875 8.609375 L 8.265625 9.625 L -1.59375 2.078125 Z M -0.8125 1.0625 "/></g></g></g><g fill="rgb(100%, 100%, 100%)" fill-opacity="1"><g transform="translate(274.593836, 269.148748)"><g><path d="M 1.109375 15.640625 L 0.1875 16.46875 L -8.078125 7.203125 L -7.15625 6.375 L 4.96875 9.5 L -1.953125 1.734375 L -1 0.890625 L 7.265625 10.15625 L 6.3125 11 L -5.8125 7.875 Z M 1.109375 15.640625 "/></g></g></g><g fill="rgb(100%, 100%, 100%)" fill-opacity="1"><g transform="translate(254.697858, 284.972447)"><g><path d="M -1.4375 2.671875 C 0.195312 3.140625 1.453125 4.179688 2.328125 5.796875 C 3.203125 7.421875 3.382812 9.046875 2.875 10.671875 C 2.375 12.296875 1.34375 13.53125 -0.21875 14.375 C -1.34375 14.988281 -2.472656 15.273438 -3.609375 15.234375 C -4.753906 15.191406 -5.8125 14.804688 -6.78125 14.078125 L -5.4375 13.359375 C -4.738281 13.828125 -3.976562 14.0625 -3.15625 14.0625 C -2.34375 14.070312 -1.535156 13.859375 -0.734375 13.421875 C 0.546875 12.734375 1.375 11.738281 1.75 10.4375 C 2.125 9.132812 1.9375 7.789062 1.1875 6.40625 C 0.445312 5.03125 -0.566406 4.144531 -1.859375 3.75 C -3.148438 3.363281 -4.425781 3.507812 -5.6875 4.1875 C -6.945312 4.875 -7.769531 5.796875 -8.15625 6.953125 C -8.550781 8.117188 -8.457031 9.375 -7.875 10.71875 L -2.953125 8.046875 L -2.484375 8.921875 L -8.5625 12.21875 L -9.03125 11.34375 C -9.695312 9.738281 -9.765625 8.1875 -9.234375 6.6875 C -8.710938 5.195312 -7.691406 4.039062 -6.171875 3.21875 C -4.648438 2.394531 -3.070312 2.210938 -1.4375 2.671875 Z M -1.4375 2.671875 "/></g></g></g><g fill="rgb(100%, 100%, 100%)" fill-opacity="1"><g transform="translate(211.582124, 300.95123)"><g><path d="M -2.390625 1.890625 C -1.066406 2.960938 -0.320312 4.414062 -0.15625 6.25 C 0.0078125 8.082031 -0.457031 9.644531 -1.5625 10.9375 C -2.675781 12.238281 -4.113281 12.972656 -5.875 13.140625 C -7.15625 13.253906 -8.3125 13.066406 -9.34375 12.578125 C -10.382812 12.085938 -11.203125 11.316406 -11.796875 10.265625 L -10.265625 10.125 C -9.816406 10.820312 -9.21875 11.332031 -8.46875 11.65625 C -7.71875 11.988281 -6.882812 12.117188 -5.96875 12.046875 C -4.53125 11.910156 -3.378906 11.320312 -2.515625 10.28125 C -1.660156 9.238281 -1.300781 7.9375 -1.4375 6.375 C -1.582031 4.8125 -2.171875 3.59375 -3.203125 2.71875 C -4.234375 1.84375 -5.46875 1.472656 -6.90625 1.609375 C -7.820312 1.679688 -8.617188 1.945312 -9.296875 2.40625 C -9.972656 2.875 -10.472656 3.492188 -10.796875 4.265625 L -12.328125 4.40625 C -11.929688 3.269531 -11.265625 2.367188 -10.328125 1.703125 C -9.398438 1.035156 -8.296875 0.644531 -7.015625 0.53125 C -5.253906 0.363281 -3.710938 0.816406 -2.390625 1.890625 Z M -2.390625 1.890625 "/></g></g></g><g fill="rgb(100%, 100%, 100%)" fill-opacity="1"><g transform="translate(184.337382, 301.770227)"><g><path d="M -10 -1.4375 L -9.390625 1.578125 L -3.65625 2.390625 L -2.203125 -0.3125 L -0.9375 -0.140625 L -7.234375 11.515625 L -8.53125 11.328125 L -11.265625 -1.609375 Z M -4.15625 3.34375 L -9.140625 2.625 L -7.640625 9.875 Z M -4.15625 3.34375 "/></g></g></g><g fill="rgb(100%, 100%, 100%)" fill-opacity="1"><g transform="translate(159.245036, 296.627185)"><g><path d="M -4.28125 3.953125 L -2.4375 -0.921875 L -1.25 -0.46875 L -5.640625 11.15625 L -9.203125 9.8125 C -10.503906 9.3125 -11.375 8.625 -11.8125 7.75 C -12.25 6.875 -12.285156 5.957031 -11.921875 5 C -11.554688 4.050781 -11 3.378906 -10.25 2.984375 C -9.507812 2.585938 -8.59375 2.519531 -7.5 2.78125 L -8.953125 -3.375 L -7.40625 -2.796875 L -6.09375 3.265625 Z M -6.46875 9.734375 L -4.640625 4.90625 L -7.015625 4.015625 C -8.867188 3.304688 -10.097656 3.753906 -10.703125 5.359375 C -11.316406 6.972656 -10.695312 8.132812 -8.84375 8.84375 Z M -6.46875 9.734375 "/></g></g></g><g fill="rgb(100%, 100%, 100%)" fill-opacity="1"><g transform="translate(137.164896, 286.743252)"><g><path d="M -6.859375 9.125 L -7.421875 10 L -13.96875 5.8125 L -13.40625 4.9375 L -10.65625 6.703125 L -4.53125 -2.890625 L -3.484375 -2.234375 L -9.609375 7.359375 Z M -6.859375 9.125 "/></g></g></g><g fill="rgb(100%, 100%, 100%)" fill-opacity="1"><g transform="translate(118.602258, 273.198843)"><g/></g></g></svg>